<svg width="220" height="192" viewBox="0 0 220 192" fill="none" xmlns="http://www.w3.org/2000/svg">
<mask id="mask0" mask-type="alpha" maskUnits="userSpaceOnUse" x="0" y="0" width="221" height="192">
<rect x="0.0664062" width="219.934" height="192" fill="#F5F5F5"/>
</mask>
<g mask="url(#mask0)">
<g opacity="0.05">
<path d="M-18.5898 280.55C-18.5898 280.55 -14.4888 29 225.013 29V83.0243C33.0834 83.0243 34.3137 280.55 34.3137 280.55H-18.5898Z" fill="#9E9E9E"/>
<path d="M58.9102 280.554C58.9102 280.554 60.5506 112.994 225.003 112.994V167.018C103.202 167.018 111.814 280.554 111.814 280.554H58.9102Z" fill="#9E9E9E"/>
</g>
<g opacity="0.05">
<path d="M205.379 223.98C205.379 223.98 -16.8459 111.555 85.0012 -108L133.102 -84.6623C51.4847 91.2823 227.876 175.482 227.876 175.482L205.379 223.98Z" fill="#9E9E9E"/>
<path d="M238.333 152.666C238.333 152.666 89.8344 78.7754 159.771 -71.9894L207.875 -48.6505C156.076 63.0132 260.831 104.166 260.831 104.166L238.333 152.666Z" fill="#9E9E9E"/>
<path d="M294.149 32.0058C302.24 14.5646 294.666 -6.43119 277.232 -14.8896C259.799 -23.3481 239.107 -16.0662 231.017 1.37501C222.926 18.8162 230.5 39.812 247.934 48.2705C265.367 56.7289 286.059 49.447 294.149 32.0058Z" fill="#9E9E9E"/>
</g>
</g>
</svg>
