<svg width="24" height="24" viewBox="0 0 24 24" fill="none" xmlns="http://www.w3.org/2000/svg">
<path d="M7.03125 16.9688C8.40625 18.3125 10.0625 18.9844 12 18.9844C13.9375 18.9844 15.5781 18.3125 16.9219 16.9688C18.2969 15.5938 18.9844 13.9375 18.9844 12C18.9844 10.0625 18.2969 8.42188 16.9219 7.07812C15.5781 5.70312 13.9375 5.01562 12 5.01562C10.0625 5.01562 8.40625 5.70312 7.03125 7.07812C5.6875 8.42188 5.01562 10.0625 5.01562 12C5.01562 13.9375 5.6875 15.5938 7.03125 16.9688ZM20.9531 11.0156H23.0156V12.9844H20.9531C20.7344 15.0781 19.875 16.875 18.375 18.375C16.875 19.875 15.0781 20.7344 12.9844 20.9531V23.0156H11.0156V20.9531C8.92188 20.7344 7.125 19.875 5.625 18.375C4.125 16.875 3.26562 15.0781 3.04688 12.9844H0.984375V11.0156H3.04688C3.26562 8.92188 4.125 7.125 5.625 5.625C7.125 4.125 8.92188 3.26562 11.0156 3.04688V0.984375H12.9844V3.04688C15.0781 3.26562 16.875 4.125 18.375 5.625C19.875 7.125 20.7344 8.92188 20.9531 11.0156ZM9.1875 9.1875C9.96875 8.40625 10.9062 8.01562 12 8.01562C13.0938 8.01562 14.0312 8.40625 14.8125 9.1875C15.5938 9.96875 15.9844 10.9062 15.9844 12C15.9844 13.0938 15.5938 14.0312 14.8125 14.8125C14.0312 15.5938 13.0938 15.9844 12 15.9844C10.9062 15.9844 9.96875 15.5938 9.1875 14.8125C8.40625 14.0312 8.01562 13.0938 8.01562 12C8.01562 10.9062 8.40625 9.96875 9.1875 9.1875Z" fill="white"/>
</svg>
