<svg width="14" height="12" viewBox="0 0 14 12" fill="none" xmlns="http://www.w3.org/2000/svg">
<path fill-rule="evenodd" clip-rule="evenodd" d="M13.36 5.9179C13.352 5.8099 13.332 5.7059 13.298 5.6039C13.284 5.5619 13.273 5.5219 13.254 5.4809C13.192 5.3449 13.113 5.2159 13.002 5.1059L9.17898 1.3219C8.68098 0.828898 7.87498 0.828898 7.37698 1.3219C6.87898 1.8149 6.87898 2.6129 7.37698 3.1059L9.02398 4.7369H1.90498C1.20198 4.7369 0.630981 5.3009 0.630981 5.9989C0.630981 6.6949 1.20198 7.2599 1.90498 7.2599H9.02398L7.37698 8.8919C6.87898 9.3839 6.87898 10.1829 7.37698 10.6749C7.62598 10.9209 7.95198 11.0449 8.27798 11.0449C8.60298 11.0449 8.92898 10.9209 9.17798 10.6749L13.001 6.8909C13.013 6.8789 13.016 6.8639 13.027 6.8519C13.129 6.7449 13.218 6.6229 13.277 6.4819C13.278 6.4809 13.278 6.4789 13.278 6.4779C13.283 6.4669 13.283 6.4559 13.287 6.4449C13.337 6.3139 13.36 6.1799 13.365 6.0469C13.368 6.0009 13.362 5.9609 13.36 5.9179Z" fill="black"/>
</svg>
