<svg width="22" height="22" viewBox="0 0 22 22" fill="none" xmlns="http://www.w3.org/2000/svg">
<path fill-rule="evenodd" clip-rule="evenodd" d="M18.6428 2.08349H16.095C16.095 1.74569 15.9608 1.42173 15.722 1.18287C15.4831 0.944005 15.1591 0.809815 14.8213 0.809815C14.4835 0.809815 14.1596 0.944005 13.9207 1.18287C13.6818 1.42173 13.5476 1.74569 13.5476 2.08349H8.45239C8.45239 1.74569 8.3182 1.42173 8.07934 1.18287C7.84048 0.944005 7.51652 0.809814 7.17871 0.809814C6.84091 0.809814 6.51695 0.944005 6.27809 1.18287C6.03923 1.42173 5.90503 1.74569 5.90503 2.08349H3.35718C2.68151 2.08357 2.03354 2.35205 1.55581 2.82987C1.07809 3.3077 0.809746 3.95573 0.809814 4.6314V18.6431C0.809812 18.9776 0.875703 19.3089 1.00373 19.6179C1.13175 19.9269 1.31939 20.2077 1.55595 20.4442C1.7925 20.6807 2.07332 20.8683 2.38238 20.9963C2.69144 21.1242 3.02268 21.1901 3.35718 21.19H18.6428C18.9773 21.1901 19.3086 21.1243 19.6176 20.9964C19.9267 20.8684 20.2076 20.6809 20.4441 20.4443C20.6807 20.2078 20.8684 19.927 20.9964 19.618C21.1244 19.3089 21.1902 18.9776 21.1902 18.6431V4.6314C21.1903 4.29683 21.1244 3.96551 20.9965 3.65638C20.8685 3.34725 20.6808 3.06636 20.4443 2.82975C20.2077 2.59315 19.9269 2.40546 19.6178 2.27742C19.3086 2.14938 18.9773 2.08348 18.6428 2.08349ZM18.6428 18.6431H3.35718V9.72712H18.6428V18.6431ZM18.6428 7.17821H3.35718V4.6314H5.905C5.905 4.96921 6.0392 5.29317 6.27806 5.53203C6.51692 5.77089 6.84088 5.90508 7.17868 5.90508C7.51649 5.90508 7.84045 5.77089 8.07931 5.53203C8.31817 5.29317 8.45236 4.96921 8.45236 4.6314H13.5476C13.5476 4.96921 13.6818 5.29317 13.9206 5.53203C14.1595 5.77089 14.4835 5.90508 14.8213 5.90508C15.1591 5.90508 15.483 5.77089 15.7219 5.53203C15.9608 5.29317 16.0949 4.96921 16.0949 4.6314H18.6427L18.6428 7.17821Z" fill="#212121"/>
</svg>
