<svg width="17" height="16" viewBox="0 0 17 16" fill="none" xmlns="http://www.w3.org/2000/svg">
<path fill-rule="evenodd" clip-rule="evenodd" d="M8.50017 1.20642C7.15652 1.20642 5.84304 1.60485 4.72584 2.35134C3.60864 3.09782 2.73788 4.15884 2.22369 5.4002C1.70949 6.64157 1.57495 8.00754 1.83708 9.32537C2.09921 10.6432 2.74623 11.8537 3.69633 12.8038C4.64643 13.7539 5.85693 14.4009 7.17476 14.6631C8.49259 14.9252 9.85855 14.7907 11.0999 14.2765C12.3413 13.7623 13.4023 12.8916 14.1488 11.7744C14.8953 10.6572 15.2937 9.34369 15.2937 8.00004C15.2917 6.1989 14.5753 4.47213 13.3017 3.19852C12.0281 1.92492 10.3013 1.2085 8.50017 1.20642ZM8.50017 13.0951C7.49247 13.095 6.50741 12.7962 5.66956 12.2363C4.83172 11.6764 4.17871 10.8806 3.79312 9.94962C3.40753 9.01861 3.30667 7.99417 3.50329 7.00584C3.69992 6.01751 4.1852 5.10968 4.89778 4.39715C5.61035 3.68462 6.51821 3.19939 7.50655 3.00282C8.49489 2.80625 9.51933 2.90717 10.4503 3.29281C11.3813 3.67846 12.177 4.33151 12.7369 5.16939C13.2967 6.00727 13.5955 6.99234 13.5955 8.00004C13.5955 9.35137 13.0586 10.6473 12.103 11.6028C11.1475 12.5583 9.85149 13.0951 8.50017 13.0951V13.0951ZM7.65117 8.84895L8.50017 11.3972L11.048 5.4525L5.10336 8.00004L7.65117 8.84895Z" fill="white"/>
</svg>
