<svg width="38" height="32" viewBox="0 0 38 32" fill="none" xmlns="http://www.w3.org/2000/svg">
<path d="M30.3527 0.5H7.68778C3.44246 0.5 0 3.97657 0 8.2598V23.7402C0 28.0253 3.44431 31.5 7.68778 31.5H30.3119C34.5572 31.5 37.9996 28.0234 37.9996 23.7402V8.2598C38.0403 3.97471 34.596 0.5 30.3523 0.5H30.3527ZM34.5964 23.7798C34.5964 26.1638 32.6741 28.0649 30.3511 28.0649H7.68778C5.32591 28.0649 3.44246 26.1245 3.44246 23.7798L3.44403 8.26021C3.44403 5.87621 5.36639 3.97512 7.68935 3.97512H30.3134C32.6753 3.97512 34.5587 5.91549 34.5587 8.26021L34.5572 23.7798H34.5964Z" fill="#CACCCF"/>
<path d="M25.0094 15.8875C24.7703 15.5276 24.2549 15.4869 23.9367 15.8077L22.0288 17.651C21.7105 17.9311 21.234 17.892 20.9561 17.5712L16.3453 11.2809C16.0271 10.8803 15.4309 10.921 15.1531 11.3216L7.60225 23.4187C7.32437 23.8991 7.64261 24.5 8.19837 24.5H29.7782C30.3744 24.5 30.6926 23.8584 30.3744 23.378L25.0094 15.8875Z" fill="#CACCCF"/>
<path d="M29 10.25C29 11.7682 27.7679 13 26.2492 13C24.7305 13 23.5 11.7682 23.5 10.25C23.5 8.73178 24.7305 7.5 26.2492 7.5C27.7679 7.5 29 8.73178 29 10.25Z" fill="#CACCCF"/>
</svg>
