<svg width="136" height="124" viewBox="0 0 136 124" fill="none" xmlns="http://www.w3.org/2000/svg">
<mask id="mask0" mask-type="alpha" maskUnits="userSpaceOnUse" x="0" y="0" width="136" height="124">
<rect width="136" height="124" rx="3" fill="#F2F2F2"/>
</mask>
<g mask="url(#mask0)">
<rect width="136" height="124" rx="3" fill="#F2F2F2"/>
</g>
<path d="M79.3527 46.5H56.6878C52.4425 46.5 49 49.9766 49 54.2598V69.7402C49 74.0253 52.4443 77.5 56.6878 77.5H79.3119C83.5572 77.5 86.9996 74.0234 86.9996 69.7402V54.2598C87.0403 49.9747 83.596 46.5 79.3523 46.5H79.3527ZM83.5964 69.7798C83.5964 72.1638 81.6741 74.0649 79.3511 74.0649H56.6878C54.3259 74.0649 52.4425 72.1245 52.4425 69.7798L52.444 54.2602C52.444 51.8762 54.3664 49.9751 56.6893 49.9751H79.3134C81.6753 49.9751 83.5587 51.9155 83.5587 54.2602L83.5572 69.7798H83.5964Z" fill="#CACCCF"/>
<path d="M74.0094 61.8875C73.7703 61.5276 73.2549 61.4869 72.9367 61.8077L71.0288 63.651C70.7105 63.9311 70.234 63.892 69.9561 63.5712L65.3453 57.2809C65.0271 56.8803 64.4309 56.921 64.1531 57.3216L56.6022 69.4187C56.3244 69.8991 56.6426 70.5 57.1984 70.5H78.7782C79.3744 70.5 79.6926 69.8584 79.3744 69.378L74.0094 61.8875Z" fill="#CACCCF"/>
<path d="M78 56.25C78 57.7682 76.7679 59 75.2492 59C73.7305 59 72.5 57.7682 72.5 56.25C72.5 54.7318 73.7305 53.5 75.2492 53.5C76.7679 53.5 78 54.7318 78 56.25Z" fill="#CACCCF"/>
</svg>
