<svg width="56" height="56" viewBox="0 0 56 56" fill="none" xmlns="http://www.w3.org/2000/svg">
<rect width="56" height="56" rx="4" fill="#F2F2F2"/>
<path fill-rule="evenodd" clip-rule="evenodd" d="M32.5791 29.5099C31.9864 29.0728 31.3341 28.7229 30.6421 28.4709C31.173 27.9713 31.5499 27.3303 31.7283 26.6235C31.9067 25.9167 31.8791 25.1736 31.6488 24.482C31.4185 23.7904 30.9951 23.1791 30.4285 22.7204C29.862 22.2616 29.1761 21.9745 28.4517 21.893C28.3022 21.871 28.1512 21.8611 28.0001 21.8637C27.849 21.8612 27.698 21.871 27.5485 21.893C26.8241 21.9746 26.1383 22.2618 25.5718 22.7205C25.0054 23.1793 24.582 23.7906 24.3517 24.4821C24.1214 25.1737 24.0938 25.9167 24.2721 26.6235C24.4504 27.3303 24.8272 27.9713 25.358 28.4709C24.6662 28.723 24.014 29.0729 23.4213 29.5099C23.1769 29.6895 22.9782 29.9241 22.8412 30.1948C22.7042 30.4655 22.6328 30.7645 22.6328 31.0679C22.6328 31.3712 22.7042 31.6703 22.8412 31.941C22.9782 32.2116 23.1769 32.4463 23.4213 32.6259C24.7465 33.6067 26.3516 34.136 28.0002 34.136C29.6489 34.136 31.2539 33.6067 32.5791 32.6259C32.8235 32.4462 33.0222 32.2116 33.1591 31.9409C33.2961 31.6703 33.3674 31.3712 33.3674 31.0679C33.3674 30.7646 33.2961 30.4655 33.1591 30.1949C33.0222 29.9242 32.8235 29.6896 32.5791 29.5099ZM27.7619 23.4131C27.8406 23.4002 27.9204 23.3951 28.0001 23.3979C28.0799 23.3951 28.1597 23.4002 28.2385 23.4131C28.8265 23.4742 29.3686 23.7586 29.7529 24.2078C30.1372 24.6569 30.3344 25.2365 30.3039 25.8268C30.2733 26.4171 30.0172 26.9732 29.5886 27.3802C29.1599 27.7872 28.5914 28.0142 28.0002 28.0142C27.4091 28.0142 26.8405 27.7872 26.4119 27.3802C25.9832 26.9732 25.7272 26.4171 25.6966 25.8268C25.666 25.2365 25.8633 24.6569 26.2476 24.2078C26.6319 23.7586 27.174 23.4742 27.7619 23.4131ZM31.6633 31.3934C30.6032 32.1782 29.3191 32.6018 28.0001 32.6018C26.6811 32.6018 25.397 32.1782 24.3369 31.3934C24.2854 31.3562 24.2434 31.3073 24.2145 31.2507C24.1855 31.1941 24.1704 31.1315 24.1704 31.0679C24.1704 31.0044 24.1855 30.9417 24.2145 30.8851C24.2434 30.8285 24.2854 30.7796 24.3369 30.7424C25.397 29.9576 26.6811 29.534 28.0001 29.534C29.3191 29.534 30.6032 29.9576 31.6633 30.7424C31.7148 30.7796 31.7568 30.8285 31.7857 30.8851C31.8147 30.9417 31.8298 31.0043 31.8298 31.0679C31.8298 31.1315 31.8147 31.1941 31.7857 31.2507C31.7568 31.3073 31.7148 31.3562 31.6633 31.3934L31.6633 31.3934Z" fill="#BDBDBD"/>
</svg>
