<svg width="21" height="22" viewBox="0 0 21 22" fill="none" xmlns="http://www.w3.org/2000/svg">
<path fill-rule="evenodd" clip-rule="evenodd" d="M19.4082 10.9992C19.241 10.9992 19.0755 11.0322 18.9211 11.0962C18.7667 11.1602 18.6264 11.254 18.5082 11.3723C18.3901 11.4905 18.2963 11.6309 18.2324 11.7854C18.1685 11.9398 18.1357 12.1054 18.1357 12.2725V18.6416H2.86523V3.35651H9.22802C9.56404 3.35369 9.88534 3.21823 10.1219 2.97962C10.3586 2.74101 10.4913 2.41859 10.4913 2.08256C10.4913 1.74653 10.3586 1.4241 10.1219 1.1855C9.88534 0.946893 9.56404 0.811428 9.22802 0.808604H1.59283C1.25513 0.808996 0.931404 0.94345 0.692791 1.18242C0.454178 1.42139 0.320205 1.74531 0.320314 2.08301V19.9151C0.320097 20.0824 0.35285 20.248 0.416699 20.4026C0.480549 20.5572 0.574244 20.6977 0.692426 20.8161C0.810609 20.9344 0.950962 21.0283 1.10546 21.0924C1.25996 21.1565 1.42557 21.1895 1.59283 21.1895H19.4082C19.5755 21.1896 19.7412 21.1566 19.8958 21.0926C20.0503 21.0286 20.1907 20.9347 20.309 20.8163C20.4272 20.6979 20.521 20.5574 20.5848 20.4028C20.6487 20.2481 20.6814 20.0824 20.6812 19.9151V12.2725C20.6813 12.1053 20.6484 11.9397 20.5844 11.7852C20.5205 11.6307 20.4267 11.4904 20.3085 11.3721C20.1903 11.2539 20.0499 11.1601 19.8955 11.0961C19.741 11.0321 19.5754 10.9991 19.4082 10.9992ZM5.4102 12.2725V13.5469C5.40987 14.2223 5.67786 14.8702 6.1552 15.348C6.63254 15.8259 7.28015 16.0945 7.95555 16.0949H9.22807C9.90322 16.0946 10.5506 15.8262 11.0279 15.3487L19.9356 6.4317C20.4128 5.95371 20.6809 5.30586 20.6809 4.6304C20.6809 3.95495 20.4128 3.3071 19.9356 2.8291L18.6632 1.55572C18.4271 1.3189 18.1466 1.131 17.8378 1.0028C17.5289 0.874589 17.1978 0.808594 16.8634 0.808594C16.529 0.808594 16.1979 0.874589 15.889 1.0028C15.5802 1.131 15.2997 1.3189 15.0636 1.55572L6.15573 10.4718C5.91928 10.7082 5.73173 10.989 5.6038 11.298C5.47588 11.607 5.41007 11.9381 5.41015 12.2725H5.4102ZM7.95555 12.2725L16.8634 3.35653L18.1357 4.62995L9.22801 13.547H7.9555L7.95555 12.2725Z" fill="#616161"/>
</svg>
