<svg width="22" height="22" viewBox="0 0 22 22" fill="none" xmlns="http://www.w3.org/2000/svg">
<path fill-rule="evenodd" clip-rule="evenodd" d="M19.9082 10.9992C19.741 10.9992 19.5755 11.0322 19.4211 11.0962C19.2667 11.1602 19.1264 11.254 19.0082 11.3723C18.8901 11.4905 18.7963 11.6309 18.7324 11.7854C18.6685 11.9398 18.6357 12.1054 18.6357 12.2725V18.6416H3.36523V3.35651H9.72802C10.064 3.35369 10.3853 3.21823 10.6219 2.97962C10.8586 2.74101 10.9913 2.41859 10.9913 2.08256C10.9913 1.74653 10.8586 1.4241 10.6219 1.1855C10.3853 0.946893 10.064 0.811428 9.72802 0.808604H2.09283C1.75513 0.808996 1.4314 0.94345 1.19279 1.18242C0.954178 1.42139 0.820205 1.74531 0.820314 2.08301V19.9151C0.820097 20.0824 0.85285 20.248 0.916699 20.4026C0.980549 20.5572 1.07424 20.6977 1.19243 20.8161C1.31061 20.9344 1.45096 21.0283 1.60546 21.0924C1.75996 21.1565 1.92557 21.1895 2.09283 21.1895H19.9082C20.0755 21.1896 20.2412 21.1566 20.3958 21.0926C20.5503 21.0286 20.6907 20.9347 20.809 20.8163C20.9272 20.6979 21.021 20.5574 21.0848 20.4028C21.1487 20.2481 21.1814 20.0824 21.1812 19.9151V12.2725C21.1813 12.1053 21.1484 11.9397 21.0844 11.7852C21.0205 11.6307 20.9267 11.4904 20.8085 11.3721C20.6903 11.2539 20.5499 11.1601 20.3955 11.0961C20.241 11.0321 20.0754 10.9991 19.9082 10.9992ZM5.9102 12.2725V13.5469C5.90987 14.2223 6.17786 14.8702 6.6552 15.348C7.13254 15.8259 7.78015 16.0945 8.45555 16.0949H9.72807C10.4032 16.0946 11.0506 15.8262 11.5279 15.3487L20.4356 6.4317C20.9128 5.95371 21.1809 5.30586 21.1809 4.6304C21.1809 3.95495 20.9128 3.3071 20.4356 2.8291L19.1632 1.55572C18.9271 1.3189 18.6466 1.131 18.3378 1.0028C18.0289 0.874589 17.6978 0.808594 17.3634 0.808594C17.029 0.808594 16.6979 0.874589 16.389 1.0028C16.0802 1.131 15.7997 1.3189 15.5636 1.55572L6.65573 10.4718C6.41928 10.7082 6.23173 10.989 6.1038 11.298C5.97588 11.607 5.91007 11.9381 5.91015 12.2725H5.9102ZM8.45555 12.2725L17.3634 3.35653L18.6357 4.62995L9.72801 13.547H8.4555L8.45555 12.2725Z" fill="#F76707"/>
</svg>
