<svg width="141" height="140" viewBox="0 0 141 140" fill="none" xmlns="http://www.w3.org/2000/svg">
<path d="M119.494 20.5122C146.839 47.8518 146.839 92.1482 119.494 119.488C92.1444 146.837 47.8581 146.837 20.5085 119.488C-6.83616 92.1482 -6.83616 47.8518 20.5085 20.5122C47.8581 -6.83741 92.1494 -6.83741 119.494 20.5122Z" fill="url(#paint0_linear)"/>
<path d="M119.494 20.5124C103.907 4.9205 82.8166 -1.74819 62.4956 0.436383C77.8276 2.07606 92.7247 8.74474 104.482 20.5124C131.827 47.8521 131.827 92.1484 104.482 119.488C92.7197 131.256 77.8276 137.914 62.4956 139.564C82.8166 141.744 103.907 135.085 119.494 119.488C146.839 92.1484 146.839 47.8471 119.494 20.5124Z" fill="url(#paint1_linear)"/>
<path d="M45.2639 99.7469C43.9842 99.7469 42.7044 99.257 41.7296 98.2822C39.775 96.3276 39.775 93.1682 41.7296 91.2136L91.2049 41.7433C93.1595 39.7887 96.3189 39.7887 98.2735 41.7433C100.228 43.6979 100.228 46.8573 98.2735 48.8119L48.7982 98.2822C47.8234 99.262 46.5437 99.7469 45.2639 99.7469Z" fill="white"/>
<path d="M94.7392 99.7469C93.4595 99.7469 92.1797 99.257 91.2049 98.2822L41.7296 48.8119C39.775 46.8573 39.775 43.6979 41.7296 41.7433C43.6842 39.7887 46.8436 39.7887 48.7982 41.7433L98.2735 91.2136C100.228 93.1682 100.228 96.3276 98.2735 98.2822C97.2987 99.262 96.019 99.7469 94.7392 99.7469Z" fill="white"/>
<defs>
<linearGradient id="paint0_linear" x1="70.0012" y1="0" x2="70.0012" y2="140" gradientUnits="userSpaceOnUse">
<stop stop-color="#ED5565"/>
<stop offset="1" stop-color="#ED5565" stop-opacity="0.5"/>
</linearGradient>
<linearGradient id="paint1_linear" x1="101.249" y1="0.0322266" x2="101.249" y2="139.967" gradientUnits="userSpaceOnUse">
<stop stop-color="#ED5565"/>
<stop offset="1" stop-color="#ED5565" stop-opacity="0.5"/>
</linearGradient>
</defs>
</svg>
