<svg width="16" height="16" viewBox="0 0 16 16" fill="none" xmlns="http://www.w3.org/2000/svg">
<path fill-rule="evenodd" clip-rule="evenodd" d="M9.69852 9.6982H6.30172C6.07689 9.69883 5.86148 9.78858 5.70272 9.94779C5.54396 10.107 5.45481 10.3226 5.45481 10.5475C5.45481 10.7723 5.54396 10.988 5.70272 11.1472C5.86148 11.3064 6.07689 11.3961 6.30172 11.3968H9.69852C9.92336 11.3961 10.1388 11.3064 10.2975 11.1472C10.4563 10.988 10.5454 10.7723 10.5454 10.5475C10.5454 10.3226 10.4563 10.107 10.2975 9.94779C10.1388 9.78858 9.92336 9.69883 9.69852 9.6982ZM9.69852 1.20667H3.75419C3.30418 1.20783 2.87292 1.38707 2.55465 1.70522C2.23638 2.02337 2.05699 2.45456 2.05566 2.90458V13.0946C2.05696 13.5447 2.23632 13.976 2.55458 14.2943C2.87283 14.6125 3.3041 14.7919 3.75419 14.7932H12.246C12.6961 14.7919 13.1274 14.6125 13.4456 14.2943C13.7638 13.976 13.9431 13.5447 13.9443 13.0946V5.45211C13.9439 4.3262 13.4965 3.24653 12.7003 2.45043C11.9041 1.65432 10.8244 1.20696 9.69852 1.20667ZM12.246 13.0947H3.75419V2.90458H8V7.15062H6.30172C6.07655 7.15062 5.86061 7.24007 5.7014 7.39929C5.54218 7.5585 5.45274 7.77444 5.45274 7.9996C5.45274 8.22477 5.54218 8.44071 5.7014 8.59993C5.86061 8.75914 6.07655 8.84858 6.30172 8.84858H9.69852C9.81001 8.84858 9.92041 8.82663 10.0234 8.78396C10.1264 8.74129 10.22 8.67876 10.2988 8.59993C10.3777 8.52109 10.4402 8.4275 10.4829 8.3245C10.5255 8.22149 10.5475 8.11109 10.5475 7.9996C10.5475 7.88811 10.5255 7.77772 10.4829 7.67471C10.4402 7.57171 10.3777 7.47812 10.2988 7.39929C10.22 7.32045 10.1264 7.25792 10.0234 7.21525C9.92041 7.17258 9.81001 7.15062 9.69852 7.15062H12.246V13.0947ZM9.69852 5.45211V2.90458C10.3736 2.90658 11.0204 3.17562 11.4977 3.65294C11.975 4.13026 12.244 4.77708 12.246 5.45211H9.69852Z" fill="#212121"/>
</svg>
