<svg width="16" height="16" viewBox="0 0 16 16" fill="none" xmlns="http://www.w3.org/2000/svg">
<path fill-rule="evenodd" clip-rule="evenodd" d="M7.99984 1.20605C6.65623 1.20607 5.34279 1.6045 4.22561 2.35096C3.10843 3.09743 2.23768 4.15841 1.72348 5.39974C1.20928 6.64107 1.07471 8.007 1.3368 9.3248C1.59888 10.6426 2.24584 11.8531 3.19588 12.8032C4.14592 13.7534 5.35635 14.4004 6.67414 14.6626C7.99192 14.9248 9.35786 14.7904 10.5992 14.2763C11.8406 13.7622 12.9017 12.8916 13.6482 11.7745C14.3948 10.6574 14.7934 9.34396 14.7935 8.00034C14.7915 6.1991 14.0752 4.47218 12.8015 3.19845C11.5279 1.92472 9.80109 1.20819 7.99984 1.20605ZM7.99984 13.0954C6.99207 13.0953 6.00694 12.7964 5.16905 12.2365C4.33115 11.6765 3.67811 10.8807 3.29251 9.9496C2.90692 9.01851 2.80608 7.99398 3.00276 7.00559C3.19943 6.01719 3.68478 5.10931 4.39743 4.39675C5.11009 3.68419 6.01804 3.19897 7.00646 3.00243C7.99488 2.80589 9.01939 2.90686 9.95043 3.29259C10.8815 3.67831 11.6772 4.33145 12.237 5.16943C12.7969 6.0074 13.0957 6.99257 13.0956 8.00034C13.0956 8.66949 12.9637 9.33207 12.7076 9.95027C12.4515 10.5685 12.0762 11.1302 11.603 11.6033C11.1298 12.0764 10.5681 12.4517 9.94982 12.7077C9.33159 12.9637 8.66899 13.0955 7.99984 13.0954V13.0954ZM7.99984 4.6032C7.83197 4.60333 7.6679 4.65323 7.52838 4.7466C7.38886 4.83996 7.28015 4.97259 7.216 5.12772C7.15185 5.28286 7.13513 5.45353 7.16796 5.61816C7.20079 5.7828 7.2817 5.934 7.40045 6.05266C7.5192 6.17132 7.67046 6.25211 7.83512 6.28482C7.99978 6.31752 8.17044 6.30067 8.32552 6.2364C8.48061 6.17213 8.61316 6.06332 8.70641 5.92373C8.79967 5.78414 8.84944 5.62004 8.84945 5.45216C8.84943 5.34062 8.82744 5.23018 8.78473 5.12715C8.74202 5.02411 8.67943 4.9305 8.60053 4.85166C8.52163 4.77282 8.42797 4.7103 8.3249 4.66767C8.22184 4.62503 8.11138 4.60312 7.99984 4.60319V4.6032ZM8.08973 8.00034H7.91065C7.81091 8.00027 7.71214 8.01985 7.61998 8.05796C7.52782 8.09608 7.44406 8.15198 7.37351 8.22247C7.30296 8.29296 7.24699 8.37666 7.20879 8.4688C7.1706 8.56093 7.15094 8.65968 7.15092 8.75941V10.6371C7.15093 10.8386 7.23098 11.0318 7.37345 11.1743C7.51593 11.3168 7.70916 11.3968 7.91065 11.3968H8.08973C8.29118 11.3967 8.48436 11.3166 8.62681 11.1742C8.76926 11.0317 8.84934 10.8386 8.84945 10.6371V8.7594C8.84931 8.55801 8.76921 8.36492 8.62674 8.22258C8.48428 8.08024 8.29112 8.0003 8.08973 8.00034Z" fill="#424242"/>
</svg>
