<svg width="17" height="16" viewBox="0 0 17 16" fill="none" xmlns="http://www.w3.org/2000/svg">
<path d="M8.49994 0.357422C6.98838 0.357435 5.51076 0.80567 4.25393 1.64545C2.9971 2.48522 2.01752 3.67882 1.43904 5.07532C0.860562 6.47181 0.709174 8.00848 1.00402 9.49102C1.29886 10.9735 2.0267 12.3354 3.09549 13.4042C4.16428 14.4731 5.52602 15.2011 7.00853 15.4961C8.49103 15.7911 10.0277 15.6398 11.4243 15.0615C12.8208 14.4831 14.0145 13.5036 14.8544 12.2469C15.6943 10.9901 16.1427 9.51256 16.1428 8.00099C16.1406 5.9746 15.3347 4.03182 13.9019 2.59887C12.469 1.16592 10.5263 0.359826 8.49994 0.357422ZM9.45575 10.9673C9.45562 11.194 9.36554 11.4113 9.20528 11.5715C9.04502 11.7318 8.8277 11.8219 8.60107 11.822H8.3996C8.17293 11.822 7.95554 11.732 7.79526 11.5717C7.63497 11.4114 7.54492 11.194 7.54491 10.9673V8.85494C7.54493 8.74274 7.56705 8.63164 7.61002 8.528C7.65299 8.42435 7.71596 8.33018 7.79533 8.25088C7.8747 8.17158 7.96892 8.10869 8.0726 8.06582C8.17629 8.02294 8.2874 8.00091 8.3996 8.00099H8.60107C8.82763 8.00095 9.04494 8.09088 9.20521 8.25102C9.36549 8.41115 9.4556 8.62839 9.45575 8.85495V10.9673ZM8.49994 6.08933C8.31108 6.08919 8.1265 6.03305 7.96954 5.92801C7.81258 5.82298 7.69029 5.67377 7.61812 5.49924C7.54595 5.32471 7.52714 5.1327 7.56408 4.94749C7.60102 4.76227 7.69204 4.59217 7.82564 4.45868C7.95924 4.32519 8.12942 4.2343 8.31466 4.19751C8.49991 4.16073 8.6919 4.17969 8.86637 4.252C9.04084 4.32431 9.18995 4.44672 9.29486 4.60377C9.39977 4.76082 9.45576 4.94544 9.45575 5.1343C9.45572 5.25977 9.43097 5.38401 9.38292 5.49992C9.33487 5.61582 9.26445 5.72112 9.17569 5.80981C9.08693 5.8985 8.98157 5.96883 8.86562 6.01678C8.74967 6.06474 8.62542 6.08939 8.49994 6.08931V6.08933Z" fill="black"/>
</svg>
