<svg width="134" height="38" viewBox="0 0 134 38" fill="none" xmlns="http://www.w3.org/2000/svg">
<path d="M4.44413 0.664185H0V19.531H4.44413V0.664185Z" fill="#FF5330"/>
<path d="M11.6101 0.662842H7.16602V19.5297H11.6101V0.662842Z" fill="#FF5330"/>
<path d="M7.20044 19.5297C7.20044 19.5297 7.54495 0.662842 27.6641 0.662842V4.71478C11.5412 4.71478 11.6446 19.5297 11.6446 19.5297H7.20044Z" fill="#FF5330"/>
<path d="M13.7112 19.5302C13.7112 19.5302 13.849 6.96289 27.6637 6.96289V11.0148C17.4318 11.0148 18.1553 19.5302 18.1553 19.5302H13.7112Z" fill="#FF5330"/>
<path d="M24.7349 19.5286C26.3331 19.5286 27.6288 18.3381 27.6288 16.8695C27.6288 15.401 26.3331 14.2104 24.7349 14.2104C23.1367 14.2104 21.8411 15.401 21.8411 16.8695C21.8411 18.3381 23.1367 19.5286 24.7349 19.5286Z" fill="#FF5330"/>
<path d="M32.4324 19.6999H47.5561V16.0477H37.2083V0.33202H32.4324V19.6999Z" fill="black"/>
<path d="M59.8731 20.0319C66.3589 20.0319 71.1643 15.7987 71.1643 10.016C71.1643 4.23327 66.3589 0 59.8731 0C53.3578 0 48.5819 4.26094 48.5819 10.016C48.5819 15.771 53.3578 20.0319 59.8731 20.0319ZM59.8731 16.2137C56.188 16.2137 53.4168 13.6959 53.4168 10.016C53.4168 6.33607 56.188 3.81824 59.8731 3.81824C63.5582 3.81824 66.3294 6.33607 66.3294 10.016C66.3294 13.6959 63.5582 16.2137 59.8731 16.2137Z" fill="black"/>
<path d="M88.698 15.3836C87.4893 15.9924 86.2806 16.2137 84.9834 16.2137C81.033 16.2137 78.2913 13.6405 78.2913 10.016C78.2913 6.33607 81.033 3.81824 85.0424 3.81824C87.1355 3.81824 88.8749 4.50995 90.3784 6.00405L93.4444 3.34788C91.4397 1.16207 88.4327 0 84.8065 0C78.2323 0 73.4564 4.17793 73.4564 10.016C73.4564 15.854 78.2323 20.0319 84.7181 20.0319C87.6662 20.0319 90.7911 19.1742 93.0612 17.5695V9.71162H88.698V15.3836Z" fill="black"/>
<path d="M102.244 16.103V11.6207H111.825V8.13452H102.244V3.92892H113.093V0.33202H97.4976V19.6999H113.476V16.103H102.244Z" fill="black"/>
<path d="M122.023 16.103V11.6207H131.604V8.13452H122.023V3.92892H132.872V0.33202H117.276V19.6999H133.255V16.103H122.023Z" fill="black"/>
<path fill-rule="evenodd" clip-rule="evenodd" d="M133.255 25.373H0V37.3922H133.255V25.373ZM104.708 33.3318C104.708 34.8018 103.381 36.0582 100.647 36.0582C99.129 36.0582 97.5976 35.6436 96.7498 35.0405L97.5019 33.5077C98.3086 34.048 99.5118 34.4249 100.66 34.4249C101.973 34.4249 102.506 34.0228 102.506 33.4826C102.506 32.7993 101.547 32.5946 100.425 32.3551C98.8448 32.0177 96.9413 31.6114 96.9413 29.7009C96.9413 28.2058 98.2539 26.962 100.975 26.962C102.178 26.962 103.409 27.2258 104.297 27.741L103.614 29.2863C102.725 28.8214 101.809 28.5953 100.961 28.5953C99.6485 28.5953 99.1426 29.0476 99.1426 29.6004C99.1426 30.2725 100.1 30.4736 101.22 30.709C102.801 31.0413 104.708 31.4419 104.708 33.3318ZM31.2647 35.9074H33.4797V28.7712H36.5425V27.1128H28.202V28.7712H31.2647V35.9074ZM53.2621 35.9074L51.1154 33.0806C52.3597 32.5906 53.0844 31.6232 53.0844 30.304C53.0844 28.3314 51.4846 27.1128 48.9278 27.1128H44.7848V35.9074H46.9999V33.4575H48.9278H49.0371L50.883 35.9074H53.2621ZM50.842 30.304C50.842 31.2588 50.1583 31.8367 48.8047 31.8367H46.9999V28.7712H48.8047C50.1583 28.7712 50.842 29.3366 50.842 30.304ZM71.3652 35.9074H69.0408L68.1931 34.0228H63.7494L62.9016 35.9074H60.6319L64.8979 27.1128H67.0856L71.3652 35.9074ZM65.9781 29.1104L64.4604 32.4775H67.4958L65.9781 29.1104ZM85.9992 27.1128V32.4524L81.241 27.1128H79.4088V35.9074H81.5965V30.5678L86.3683 35.9074H88.1869V27.1128H85.9992Z" fill="#FF5330"/>
</svg>
