<svg width="4" height="16" viewBox="0 0 4 16" fill="none" xmlns="http://www.w3.org/2000/svg">
<path d="M0.604651 9.40351C0.20155 8.99805 -3.26515e-07 8.53021 -3.49691e-07 8C-3.72868e-07 7.46979 0.20155 7.00195 0.604651 6.59649C1.00775 6.19103 1.47287 5.9883 2 5.9883C2.52713 5.9883 2.99225 6.19103 3.39535 6.59649C3.79845 7.00195 4 7.46979 4 8C4 8.53021 3.79845 8.99805 3.39535 9.40351C2.99225 9.80897 2.52713 10.0117 2 10.0117C1.47287 10.0117 1.00775 9.80897 0.604651 9.40351ZM0.604651 3.4152C0.20155 3.00975 -5.88272e-07 2.54191 -6.11448e-07 2.0117C-6.34625e-07 1.48148 0.20155 1.01365 0.604651 0.608187C1.00775 0.202729 1.47287 -6.43811e-08 2 -8.74228e-08C2.52713 -1.10464e-07 2.99225 0.202729 3.39535 0.608187C3.79845 1.01365 4 1.48148 4 2.0117C4 2.54191 3.79845 3.00975 3.39535 3.4152C2.99225 3.82066 2.52713 4.02339 2 4.02339C1.47287 4.02339 1.00775 3.82066 0.604651 3.4152ZM0.604651 15.3918C0.20155 14.9864 -6.47576e-08 14.5185 -8.7934e-08 13.9883C-1.1111e-07 13.4581 0.20155 12.9903 0.604651 12.5848C1.00775 12.1793 1.47287 11.9766 2 11.9766C2.52713 11.9766 2.99225 12.1793 3.39535 12.5848C3.79845 12.9903 4 13.4581 4 13.9883C4 14.5185 3.79845 14.9864 3.39535 15.3918C2.99225 15.7973 2.52713 16 2 16C1.47287 16 1.00775 15.7973 0.604651 15.3918Z" fill="white"/>
</svg>
