<svg width="18" height="14" viewBox="0 0 18 14" fill="none" xmlns="http://www.w3.org/2000/svg">
<path fill-rule="evenodd" clip-rule="evenodd" d="M15.3691 0.630859H2.63102C2.3522 0.630851 2.07611 0.685762 1.81851 0.792457C1.56091 0.899152 1.32684 1.05554 1.12968 1.2527C0.932525 1.44985 0.77613 1.68391 0.669429 1.94151C0.562728 2.1991 0.50781 2.4752 0.507813 2.75402V11.2461C0.507807 11.5249 0.562722 11.801 0.669422 12.0586C0.776122 12.3162 0.932517 12.5503 1.12968 12.7474C1.32684 12.9446 1.5609 13.101 1.8185 13.2077C2.0761 13.3144 2.3522 13.3693 2.63102 13.3692H15.3691C15.6479 13.3692 15.9239 13.3143 16.1815 13.2076C16.439 13.1009 16.6731 12.9445 16.8702 12.7473C17.0673 12.5502 17.2237 12.3161 17.3303 12.0585C17.437 11.801 17.4919 11.5249 17.4919 11.2461V2.75402C17.4919 2.19097 17.2683 1.65096 16.8702 1.25279C16.4721 0.854625 15.9321 0.630908 15.3691 0.630859ZM13.7105 2.75402L8.99989 6.67985L4.28915 2.75402H13.7105ZM15.3691 11.2461H2.63102V4.13586L8.32031 8.87712C8.51114 9.03593 8.75157 9.12288 8.99984 9.12288C9.24811 9.12288 9.48853 9.03593 9.67936 8.87712L15.3691 4.13586V11.2461Z" fill="#2B2826"/>
</svg>
