<svg width="24" height="24" viewBox="0 0 24 24" fill="none" xmlns="http://www.w3.org/2000/svg">
<path fill-rule="evenodd" clip-rule="evenodd" d="M8.17724 12.0001C8.42911 12.0001 8.67531 11.9254 8.88473 11.7855C9.09414 11.6456 9.25736 11.4467 9.35375 11.214C9.45013 10.9813 9.47535 10.7252 9.42622 10.4782C9.37708 10.2312 9.2558 10.0043 9.07771 9.82619C8.89962 9.64809 8.67272 9.5268 8.4257 9.47766C8.17868 9.42851 7.92263 9.45372 7.68993 9.5501C7.45724 9.64647 7.25834 9.80968 7.1184 10.0191C6.97846 10.2285 6.90376 10.4747 6.90374 10.7266C6.9048 11.064 7.03931 11.3873 7.2779 11.6259C7.5165 11.8645 7.83981 11.999 8.17724 12.0001ZM11.9991 12.0001C12.2509 12 12.4971 11.9252 12.7064 11.7853C12.9158 11.6453 13.0789 11.4463 13.1752 11.2136C13.2715 10.9809 13.2967 10.7249 13.2475 10.4779C13.1983 10.2309 13.077 10.0041 12.8989 9.82602C12.7208 9.64797 12.4939 9.52673 12.2469 9.47762C11.9998 9.42852 11.7438 9.45375 11.5112 9.55014C11.2785 9.64653 11.0796 9.80974 10.9397 10.0191C10.7998 10.2285 10.7251 10.4747 10.7251 10.7266C10.7261 11.0641 10.8607 11.3875 11.0994 11.6261C11.3381 11.8648 11.6616 11.9992 11.9991 12.0001ZM15.8203 12.0001C16.0721 12 16.3183 11.9253 16.5276 11.7853C16.737 11.6453 16.9002 11.4464 16.9965 11.2137C17.0928 10.981 17.118 10.725 17.0688 10.478C17.0196 10.231 16.8983 10.0041 16.7202 9.82606C16.5421 9.648 16.3152 9.52675 16.0682 9.47763C15.8212 9.42852 15.5652 9.45375 15.3325 9.55013C15.0998 9.64651 14.9009 9.80972 14.761 10.0191C14.6211 10.2285 14.5464 10.4747 14.5464 10.7266C14.5475 11.064 14.682 11.3874 14.9207 11.626C15.1594 11.8646 15.4828 11.9991 15.8203 12.0001ZM19.6416 1.80957H4.35595C3.68028 1.80966 3.03232 2.07814 2.5546 2.55597C2.07688 3.03379 1.80854 3.68181 1.80859 4.35748V19.6436C1.8087 20.1046 1.93393 20.557 2.17091 20.9525C2.40789 21.3479 2.74775 21.6717 3.15426 21.8892C3.56077 22.1067 4.01868 22.2098 4.47917 22.1875C4.93967 22.1652 5.38549 22.0184 5.7691 21.7627L8.94879 19.6436H19.6416C19.9762 19.6436 20.3075 19.5777 20.6166 19.4497C20.9258 19.3217 21.2066 19.134 21.4432 18.8974C21.6798 18.6608 21.8675 18.38 21.9955 18.0708C22.1236 17.7617 22.1895 17.4304 22.1895 17.0958V4.35748C22.1895 4.02288 22.1236 3.69155 21.9956 3.38242C21.8675 3.07329 21.6799 2.7924 21.4433 2.5558C21.2067 2.3192 20.9258 2.13152 20.6167 2.00348C20.3075 1.87544 19.9762 1.80955 19.6416 1.80957ZM19.6416 17.0958H8.17724L4.35595 19.6436V4.35748H19.6416V17.0958Z" fill="black"/>
</svg>
