<svg width="384" height="24" viewBox="0 0 384 24" fill="none" xmlns="http://www.w3.org/2000/svg">
<rect x="44.3086" y="11" width="339.692" height="2" fill="#F4F4F6"/>
<path d="M12.9228 3C12.9228 4.10457 12.0962 5 11.0766 5C10.057 5 9.23047 4.10457 9.23047 3C9.23047 1.89543 10.057 1 11.0766 1C12.0962 1 12.9228 1.89543 12.9228 3Z" fill="#25282B"/>
<path d="M12.9228 9C12.9228 10.1046 12.0962 11 11.0766 11C10.057 11 9.23047 10.1046 9.23047 9C9.23047 7.89543 10.057 7 11.0766 7C12.0962 7 12.9228 7.89543 12.9228 9Z" fill="#25282B"/>
<path d="M12.9228 15C12.9228 16.1046 12.0962 17 11.0766 17C10.057 17 9.23047 16.1046 9.23047 15C9.23047 13.8954 10.057 13 11.0766 13C12.0962 13 12.9228 13.8954 12.9228 15Z" fill="#25282B"/>
<path d="M12.9228 21C12.9228 22.1046 12.0962 23 11.0766 23C10.057 23 9.23047 22.1046 9.23047 21C9.23047 19.8954 10.057 19 11.0766 19C12.0962 19 12.9228 19.8954 12.9228 21Z" fill="#25282B"/>
</svg>
