<svg width="18" height="18" viewBox="0 0 18 18" fill="none" xmlns="http://www.w3.org/2000/svg">
<path fill-rule="evenodd" clip-rule="evenodd" d="M16.0413 10.1711L12.8561 9.10987C12.3712 8.94821 11.8443 8.96686 11.372 9.1624C10.8998 9.35794 10.5139 9.71725 10.2852 10.1744L9.89955 10.9466C9.22898 10.7405 8.61905 10.3734 8.12299 9.87732C7.62692 9.38127 7.25979 8.77135 7.05364 8.10078L7.82599 7.71504C8.28309 7.48656 8.64246 7.10088 8.83814 6.6288C9.03382 6.15672 9.05268 5.62991 8.89125 5.14504L7.82927 1.96062C7.65143 1.42679 7.26893 0.985412 6.76582 0.733473C6.2627 0.481534 5.68015 0.43965 5.14617 0.617025L2.68279 1.43408C2.40228 1.52739 2.1443 1.67813 1.92529 1.87669C1.70628 2.07524 1.53105 2.31725 1.41076 2.58729C0.779567 4.01502 0.471601 5.56457 0.508882 7.12516C0.546163 8.68575 0.92777 10.2188 1.62642 11.6148C1.75073 11.8765 1.88818 12.1318 2.03825 12.3797C2.4806 13.1156 3.01525 13.792 3.6292 14.3922C3.73336 14.4972 3.85544 14.6177 3.99053 14.7389C5.94248 16.5127 8.48603 17.4945 11.1236 17.492C12.6016 17.4958 14.0638 17.1877 15.4147 16.5879C15.6848 16.468 15.9269 16.293 16.1255 16.0741C16.3241 15.8552 16.4747 15.5973 16.5678 15.3168L17.3858 12.8541C17.5629 12.3201 17.5208 11.7375 17.2687 11.2344C17.0166 10.7314 16.5752 10.3489 16.0413 10.1711ZM14.5529 14.6478C13.0486 15.3107 11.3844 15.5232 9.76192 15.2595C8.13939 14.9957 6.62818 14.2671 5.41141 13.1618C5.30486 13.0658 5.2096 12.9705 5.11361 12.8754C4.62594 12.397 4.20149 11.8582 3.8506 11.2721C3.73404 11.0797 3.62756 10.8815 3.53159 10.6781C2.9706 9.5609 2.66357 8.33349 2.63247 7.08374C2.60137 5.83399 2.84697 4.59283 3.3517 3.44911L5.81511 2.632L6.87626 5.81646L4.7531 6.87761C4.75553 8.56626 5.42752 10.185 6.62174 11.3789C7.81595 12.5728 9.43489 13.2444 11.1235 13.2464L12.1847 11.1232L15.3699 12.1853L14.5529 14.6478Z" fill="#2B2826"/>
</svg>
