<svg width="26" height="24" viewBox="0 0 26 24" fill="none" xmlns="http://www.w3.org/2000/svg">
<path fill-rule="evenodd" clip-rule="evenodd" d="M20.6648 14.5079C19.6272 13.782 18.4854 13.2009 17.2741 12.7824C18.2034 11.9528 18.8632 10.8883 19.1754 9.7145C19.4877 8.54071 19.4393 7.30666 19.0362 6.15807C18.633 5.00948 17.8919 3.99432 16.9002 3.23245C15.9085 2.47059 14.7078 1.99384 13.4398 1.8585C13.1781 1.82184 12.9137 1.80553 12.6492 1.80973C12.3848 1.80555 12.1204 1.82186 11.8587 1.8585C10.5907 1.99401 9.39015 2.47085 8.39861 3.23274C7.40707 3.99462 6.666 5.00974 6.26286 6.15825C5.85973 7.30677 5.81137 8.54073 6.12349 9.71448C6.43561 10.8882 7.09519 11.9528 8.02435 12.7824C6.81326 13.201 5.67161 13.7821 4.6342 14.5079C4.20631 14.8062 3.85841 15.1959 3.61863 15.6454C3.37885 16.0948 3.25391 16.5915 3.25391 17.0953C3.25391 17.5991 3.37885 18.0958 3.61863 18.5453C3.85841 18.9947 4.20631 19.3844 4.6342 19.6827C6.95391 21.3115 9.76357 22.1906 12.6495 22.1906C15.5354 22.1906 18.3451 21.3115 20.6648 19.6827C21.0926 19.3843 21.4403 18.9947 21.6801 18.5452C21.9198 18.0957 22.0447 17.599 22.0447 17.0953C22.0447 16.5916 21.9198 16.0949 21.6801 15.6454C21.4403 15.196 21.0926 14.8063 20.6648 14.5079ZM12.2323 4.38291C12.3701 4.36146 12.5097 4.35298 12.6492 4.35758C12.7889 4.35297 12.9287 4.36146 13.0666 4.38291C14.0958 4.48432 15.0447 4.95673 15.7175 5.70262C16.3902 6.44851 16.7354 7.41096 16.6819 8.39133C16.6284 9.3717 16.1802 10.2952 15.4299 10.9711C14.6795 11.6471 13.6842 12.024 12.6495 12.024C11.6147 12.024 10.6195 11.6471 9.86911 10.9711C9.11875 10.2952 8.67056 9.3717 8.61704 8.39133C8.56352 7.41096 8.90875 6.44851 9.58149 5.70262C10.2542 4.95673 11.2031 4.48432 12.2323 4.38291ZM19.0615 17.6359C17.2059 18.9392 14.9581 19.6427 12.6492 19.6427C10.3404 19.6427 8.09256 18.9392 6.23688 17.6359C6.14667 17.5741 6.07322 17.4929 6.02256 17.3989C5.97191 17.3049 5.94549 17.2009 5.94549 17.0954C5.94549 16.9898 5.97191 16.8858 6.02256 16.7918C6.07322 16.6978 6.14667 16.6166 6.23688 16.5548C8.09256 15.2515 10.3404 14.548 12.6492 14.548C14.9581 14.548 17.2059 15.2515 19.0615 16.5548C19.1518 16.6166 19.2253 16.6978 19.2759 16.7918C19.3266 16.8857 19.353 16.9898 19.353 17.0953C19.353 17.2009 19.3266 17.305 19.2759 17.3989C19.2253 17.4929 19.1518 17.5741 19.0616 17.6359L19.0615 17.6359Z" fill="black"/>
</svg>
