<svg width="24" height="24" viewBox="0 0 24 24" fill="none" xmlns="http://www.w3.org/2000/svg">
<path d="M19.6811 4.3197C19.2601 3.89864 18.5692 3.89864 18.1482 4.3197L4.32013 18.1477C3.89907 18.5688 3.89907 19.2596 4.32013 19.6807C4.53922 19.8998 4.80829 20.0004 5.07804 20.0004C5.34779 20.0004 5.63398 19.8991 5.83596 19.6807L19.664 5.85264C20.1022 5.43158 20.1022 4.74077 19.6811 4.3197H19.6811Z" fill="#25282B"/>
<path d="M7.51975 11.0402C9.45664 11.0402 11.0395 9.45725 11.0395 7.52042C11.0402 5.58286 9.45657 4 7.51975 4C5.58293 4 4 5.58293 4 7.51975C4 9.45657 5.58293 11.0402 7.51975 11.0402ZM7.51975 6.17235C8.26055 6.17235 8.86715 6.77895 8.86715 7.51975C8.86715 8.26055 8.26055 8.86715 7.51975 8.86715C6.77895 8.86715 6.17235 8.26055 6.17235 7.51975C6.17235 6.77895 6.77895 6.17235 7.51975 6.17235Z" fill="#25282B"/>
<path d="M16.4805 12.96C14.5436 12.96 12.9608 14.5429 12.9608 16.4797C12.9608 18.4165 14.5437 19.9995 16.4805 19.9995C18.4173 19.9995 20.0002 18.4165 20.0002 16.4797C20.0002 14.5435 18.4173 12.96 16.4805 12.96ZM16.4805 17.8278C15.7397 17.8278 15.1331 17.2212 15.1331 16.4804C15.1331 15.7396 15.7397 15.133 16.4805 15.133C17.2213 15.133 17.8279 15.7396 17.8279 16.4804C17.8279 17.2212 17.2213 17.8278 16.4805 17.8278Z" fill="#25282B"/>
</svg>
