<svg width="18" height="18" viewBox="0 0 18 18" fill="none" xmlns="http://www.w3.org/2000/svg">
<path fill-rule="evenodd" clip-rule="evenodd" d="M9 1.5C4.8 1.5 1.5 4.8 1.5 9C1.5 13.2 4.8 16.5 9 16.5C13.2 16.5 16.5 13.2 16.5 9C16.5 4.8 13.2 1.5 9 1.5Z" fill="#EEEEEE"/>
<path fill-rule="evenodd" clip-rule="evenodd" d="M12.0724 8.56838L8.34187 4.77788C7.97812 4.40738 7.38787 4.40738 7.02337 4.77788C6.65887 5.14763 6.65887 5.74762 7.02337 6.11738L10.0939 9.23813L7.02337 12.3581C6.65887 12.7286 6.65887 13.3279 7.02337 13.6984C7.20487 13.8829 7.44412 13.9759 7.68262 13.9759C7.92112 13.9759 8.16037 13.8829 8.34187 13.6984L12.0724 9.90713C12.4376 9.53813 12.4376 8.93888 12.0724 8.56838Z" fill="#9E9E9E"/>
</svg>
