<svg width="16" height="14" viewBox="0 0 16 14" fill="none" xmlns="http://www.w3.org/2000/svg">
<path d="M3.186 5.694C3.54067 5.694 3.84867 5.64967 4.11 5.561C4.376 5.47233 4.593 5.351 4.761 5.197C4.93367 5.03833 5.062 4.85167 5.146 4.637C5.23 4.42233 5.272 4.18667 5.272 3.93C5.272 3.41667 5.10167 3.02233 4.761 2.747C4.425 2.47167 3.90933 2.334 3.214 2.334H2.01V5.694H3.186ZM8.03 11H6.329C6.007 11 5.77367 10.874 5.629 10.622L3.501 7.381C3.42167 7.25967 3.333 7.17333 3.235 7.122C3.14167 7.07067 3.00167 7.045 2.815 7.045H2.01V11H0.127V0.877999H3.214C3.9 0.877999 4.488 0.950333 4.978 1.095C5.47267 1.235 5.87633 1.43333 6.189 1.69C6.50633 1.94667 6.73967 2.25467 6.889 2.614C7.03833 2.96867 7.113 3.36067 7.113 3.79C7.113 4.13067 7.06167 4.45267 6.959 4.756C6.861 5.05933 6.71633 5.33467 6.525 5.582C6.33833 5.82933 6.105 6.04633 5.825 6.233C5.54967 6.41967 5.23467 6.56667 4.88 6.674C5.00133 6.744 5.11333 6.828 5.216 6.926C5.31867 7.01933 5.412 7.13133 5.496 7.262L8.03 11ZM10.4834 9.138C10.6794 9.376 10.8917 9.544 11.1204 9.642C11.3537 9.74 11.6057 9.789 11.8764 9.789C12.1377 9.789 12.3734 9.74 12.5834 9.642C12.7934 9.544 12.9707 9.39467 13.1154 9.194C13.2647 8.99333 13.3791 8.74133 13.4584 8.438C13.5377 8.13 13.5774 7.76833 13.5774 7.353C13.5774 6.933 13.5424 6.57833 13.4724 6.289C13.4071 5.995 13.3114 5.757 13.1854 5.575C13.0594 5.393 12.9054 5.26 12.7234 5.176C12.5461 5.092 12.3431 5.05 12.1144 5.05C11.7551 5.05 11.4494 5.127 11.1974 5.281C10.9454 5.43033 10.7074 5.64267 10.4834 5.918V9.138ZM10.3924 4.798C10.6864 4.46667 11.0201 4.19833 11.3934 3.993C11.7667 3.78767 12.2054 3.685 12.7094 3.685C13.1014 3.685 13.4584 3.76667 13.7804 3.93C14.1071 4.09333 14.3871 4.33133 14.6204 4.644C14.8584 4.952 15.0404 5.33467 15.1664 5.792C15.2971 6.24467 15.3624 6.765 15.3624 7.353C15.3624 7.88967 15.2901 8.38667 15.1454 8.844C15.0007 9.30133 14.7931 9.698 14.5224 10.034C14.2564 10.37 13.9321 10.6337 13.5494 10.825C13.1714 11.0117 12.7467 11.105 12.2754 11.105C11.8741 11.105 11.5311 11.0443 11.2464 10.923C10.9617 10.797 10.7074 10.6243 10.4834 10.405V13.345H8.75439V3.818H9.81139C10.0354 3.818 10.1824 3.923 10.2524 4.133L10.3924 4.798Z" fill="#616161"/>
</svg>
