<svg width="140" height="140" viewBox="0 0 140 140" fill="none" xmlns="http://www.w3.org/2000/svg">
<path d="M70 0C108.65 0 140 31.355 140 70C140 108.7 108.65 140 70 140C31.35 140 0 108.7 0 70C0 31.36 31.35 0 70 0Z" fill="url(#paint0_linear)"/>
<path d="M70.001 0C67.461 0 64.961 0.154998 62.491 0.419998C97.611 4.17 124.986 33.895 124.986 70C124.986 106.16 97.611 135.84 62.491 139.59C64.961 139.855 67.461 140 70.001 140C108.651 140 140.001 108.7 140.001 70C140.001 31.36 108.651 0 70.001 0Z" fill="url(#paint1_linear)"/>
<path d="M59.9968 100.014C58.7168 100.014 57.4368 99.5241 56.4618 98.5491L36.4768 78.5641C34.5217 76.6091 34.5217 73.4491 36.4768 71.4941C38.4318 69.5391 41.5918 69.5391 43.5468 71.4941L63.5318 91.4791C65.4868 93.4341 65.4868 96.5941 63.5318 98.5491C62.5568 99.5241 61.2768 100.014 59.9968 100.014Z" fill="white"/>
<path d="M59.9927 100.017C58.7127 100.017 57.4327 99.5268 56.4577 98.5518C54.5027 96.5968 54.5027 93.4368 56.4577 91.4818L101.453 46.4868C103.408 44.5318 106.568 44.5318 108.523 46.4868C110.478 48.4418 110.478 51.6018 108.523 53.5568L63.5277 98.5518C62.5527 99.5268 61.2727 100.017 59.9927 100.017Z" fill="white"/>
<defs>
<linearGradient id="paint0_linear" x1="70" y1="0" x2="70" y2="140" gradientUnits="userSpaceOnUse">
<stop stop-color="#27AE60"/>
<stop offset="1" stop-color="#27AE60" stop-opacity="0.5"/>
</linearGradient>
<linearGradient id="paint1_linear" x1="101.246" y1="0" x2="101.246" y2="140" gradientUnits="userSpaceOnUse">
<stop stop-color="#219653"/>
<stop offset="1" stop-color="#219653" stop-opacity="0"/>
</linearGradient>
</defs>
</svg>
