<svg width="24" height="24" viewBox="0 0 24 24" fill="none" xmlns="http://www.w3.org/2000/svg">
<path fill-rule="evenodd" clip-rule="evenodd" d="M3.08393 6.90523H12.2393C12.498 7.6492 12.982 8.29416 13.624 8.75058C14.2659 9.20699 15.0341 9.45222 15.8218 9.45222C16.6095 9.45222 17.3776 9.20699 18.0196 8.75058C18.6616 8.29416 19.1455 7.6492 19.4043 6.90523H20.917C21.2542 6.90428 21.5773 6.76965 21.8154 6.53086C22.0536 6.29206 22.1873 5.96858 22.1873 5.63133C22.1873 5.29409 22.0536 4.97061 21.8154 4.73181C21.5773 4.49301 21.2542 4.35838 20.917 4.35744H19.4042C19.1457 3.61325 18.6618 2.96805 18.0198 2.51145C17.3778 2.05485 16.6096 1.80951 15.8217 1.80951C15.0339 1.80951 14.2657 2.05485 13.6237 2.51145C12.9817 2.96805 12.4978 3.61325 12.2392 4.35744H3.08393C2.91634 4.35697 2.7503 4.38957 2.59533 4.45338C2.44036 4.51719 2.29951 4.61095 2.18084 4.72929C2.06217 4.84763 1.96801 4.98822 1.90377 5.14301C1.83953 5.2978 1.80646 5.46374 1.80646 5.63133C1.80646 5.79893 1.83953 5.96487 1.90377 6.11966C1.96801 6.27445 2.06217 6.41504 2.18084 6.53338C2.29951 6.65172 2.44036 6.74548 2.59533 6.80929C2.7503 6.8731 2.91634 6.9057 3.08393 6.90523ZM15.8223 4.35744C16.0742 4.35754 16.3205 4.43235 16.5299 4.57242C16.7394 4.71248 16.9026 4.91149 16.9989 5.14431C17.0952 5.37712 17.1203 5.63326 17.0711 5.88035C17.0218 6.12744 16.9004 6.35438 16.7222 6.53247C16.544 6.71056 16.3169 6.8318 16.0698 6.88086C15.8227 6.92992 15.5666 6.90459 15.3338 6.80809C15.1011 6.71158 14.9022 6.54823 14.7623 6.33869C14.6224 6.12915 14.5478 5.88283 14.5479 5.63088C14.5489 5.29329 14.6835 4.96984 14.9223 4.73122C15.1611 4.49261 15.4847 4.35822 15.8223 4.35744ZM20.9169 17.0958H19.4042C19.1457 16.3516 18.6618 15.7064 18.0198 15.2498C17.3778 14.7932 16.6096 14.5478 15.8217 14.5478C15.0339 14.5478 14.2657 14.7932 13.6237 15.2498C12.9817 15.7064 12.4978 16.3516 12.2392 17.0958H3.08393C2.9167 17.0958 2.75112 17.1287 2.59663 17.1927C2.44213 17.2567 2.30176 17.3505 2.18351 17.4687C2.06527 17.587 1.97147 17.7274 1.90748 17.8819C1.84348 18.0364 1.81055 18.2019 1.81055 18.3692C1.81055 18.5364 1.84348 18.702 1.90748 18.8565C1.97147 19.011 2.06527 19.1513 2.18351 19.2696C2.30176 19.3878 2.44213 19.4816 2.59663 19.5456C2.75112 19.6096 2.9167 19.6425 3.08393 19.6425H12.2393C12.4978 20.3867 12.9817 21.0319 13.6237 21.4885C14.2657 21.9451 15.034 22.1905 15.8218 22.1905C16.6096 22.1905 17.3778 21.9451 18.0198 21.4885C18.6619 21.0319 19.1457 20.3867 19.4043 19.6425H20.917C21.0842 19.6425 21.2498 19.6096 21.4043 19.5456C21.5588 19.4816 21.6991 19.3878 21.8174 19.2696C21.9356 19.1513 22.0294 19.011 22.0934 18.8565C22.1574 18.702 22.1903 18.5364 22.1903 18.3692C22.1903 18.2019 22.1574 18.0364 22.0934 17.8819C22.0294 17.7274 21.9356 17.587 21.8174 17.4687C21.6991 17.3505 21.5588 17.2567 21.4043 17.1927C21.2498 17.1287 21.0842 17.0958 20.917 17.0958H20.9169ZM15.8223 19.6425C15.5704 19.6425 15.3242 19.5679 15.1148 19.4279C14.9054 19.288 14.7422 19.0891 14.6458 18.8565C14.5494 18.6238 14.5242 18.3678 14.5734 18.1207C14.6225 17.8737 14.7438 17.6468 14.9218 17.4687C15.0999 17.2907 15.3268 17.1694 15.5738 17.1202C15.8209 17.0711 16.0769 17.0963 16.3096 17.1927C16.5422 17.2891 16.7411 17.4523 16.881 17.6617C17.021 17.8711 17.0956 18.1173 17.0956 18.3692C17.0945 18.7065 16.96 19.0298 16.7215 19.2684C16.4829 19.5069 16.1597 19.6414 15.8223 19.6425ZM20.9169 10.7265H11.7618C11.5031 9.98235 11.0191 9.33717 10.377 8.88059C9.73492 8.42401 8.96659 8.17869 8.17872 8.17869C7.39084 8.17869 6.62252 8.42401 5.98043 8.88059C5.33833 9.33717 4.85434 9.98235 4.59565 10.7265H3.08393C2.74619 10.7265 2.42228 10.8607 2.18347 11.0995C1.94465 11.3383 1.81049 11.6622 1.81049 12C1.81049 12.3377 1.94465 12.6616 2.18347 12.9004C2.42228 13.1393 2.74619 13.2734 3.08393 13.2734H4.59565C4.85618 14.0214 5.34416 14.6692 5.99123 15.1261C6.6383 15.583 7.41206 15.826 8.20415 15.8211C8.99623 15.8163 9.76696 15.5638 10.4084 15.0991C11.0499 14.6344 11.5299 13.9807 11.7813 13.2295C11.8526 13.2509 11.9258 13.2656 11.9999 13.2734H20.9169C21.2547 13.2734 21.5786 13.1393 21.8174 12.9004C22.0562 12.6616 22.1904 12.3377 22.1904 12C22.1904 11.6622 22.0562 11.3383 21.8174 11.0995C21.5786 10.8607 21.2547 10.7265 20.9169 10.7265H20.9169ZM8.17866 13.2735C7.92684 13.2733 7.68073 13.1984 7.47145 13.0583C7.26217 12.9183 7.09911 12.7193 7.00289 12.4866C6.90667 12.2539 6.8816 11.9979 6.93086 11.7509C6.98011 11.504 7.10149 11.2772 7.27963 11.0992C7.45777 10.9212 7.68468 10.8 7.93168 10.751C8.17868 10.7019 8.43467 10.7272 8.6673 10.8236C8.89993 10.9201 9.09875 11.0833 9.23862 11.2927C9.3785 11.5021 9.45315 11.7483 9.45314 12.0001C9.45207 12.3377 9.31742 12.6611 9.07861 12.8997C8.8398 13.1383 8.51624 13.2727 8.17866 13.2735Z" fill="white"/>
</svg>
