<svg width="22" height="22" viewBox="0 0 22 22" fill="none" xmlns="http://www.w3.org/2000/svg">
<path fill-rule="evenodd" clip-rule="evenodd" d="M15.7852 11.3361C16.5934 10.416 17.1193 9.28238 17.2998 8.07105C17.4802 6.85971 17.3077 5.62203 16.8027 4.50628C16.2977 3.39053 15.4818 2.44402 14.4526 1.78014C13.4234 1.11627 12.2247 0.763184 11 0.763184C9.7753 0.763184 8.57656 1.11627 7.5474 1.78014C6.51824 2.44402 5.70229 3.39053 5.19732 4.50628C4.69235 5.62203 4.51975 6.85971 4.70022 8.07105C4.88069 9.28238 5.40656 10.416 6.21484 11.3361C4.65148 11.8167 3.28316 12.7855 2.31044 14.1004C1.33771 15.4152 0.811728 17.0071 0.80957 18.6427C0.809561 18.9773 0.875456 19.3086 1.00349 19.6177C1.13153 19.9269 1.3192 20.2077 1.55579 20.4443C1.79238 20.6809 2.07326 20.8686 2.38238 20.9966C2.69151 21.1247 3.02283 21.1906 3.35742 21.1906H18.6426C18.9772 21.1906 19.3085 21.1247 19.6176 20.9967C19.9268 20.8686 20.2076 20.681 20.4442 20.4444C20.6808 20.2078 20.8685 19.9269 20.9965 19.6177C21.1246 19.3086 21.1905 18.9773 21.1904 18.6427C21.1883 17.0071 20.6623 15.4152 19.6896 14.1004C18.7168 12.7855 17.3485 11.8167 15.7852 11.3361ZM11.0001 3.35759C11.7558 3.35759 12.4946 3.58171 13.123 4.0016C13.7514 4.42149 14.2412 5.01829 14.5304 5.71654C14.8196 6.41479 14.8953 7.18312 14.7479 7.92437C14.6004 8.66562 14.2365 9.3465 13.702 9.88091C13.1676 10.4153 12.4867 10.7792 11.7455 10.9267C11.0042 11.0741 10.2359 10.9984 9.53767 10.7092C8.83943 10.42 8.24263 9.93021 7.82275 9.3018C7.40287 8.67339 7.17876 7.93459 7.17877 7.17882C7.17813 6.67682 7.27653 6.17963 7.46834 5.71572C7.66015 5.25181 7.9416 4.8303 8.29657 4.47534C8.65153 4.12038 9.07305 3.83893 9.53696 3.64713C10.0009 3.45533 10.4981 3.35693 11.0001 3.35759ZM16.0958 18.6427H3.35742C3.35732 17.2914 3.89402 15.9953 4.84946 15.0397C5.8049 14.0841 7.10082 13.5471 8.45215 13.547H13.5478C14.8992 13.5471 16.1951 14.0841 17.1505 15.0397C18.106 15.9953 18.6427 17.2914 18.6426 18.6427H16.0958Z" fill="black"/>
</svg>
