<svg width="22" height="22" viewBox="0 0 22 22" fill="none" xmlns="http://www.w3.org/2000/svg">
<path fill-rule="evenodd" clip-rule="evenodd" d="M18.6428 2.08325H16.095C16.095 1.74545 15.9608 1.42148 15.722 1.18262C15.4831 0.943761 15.1591 0.80957 14.8213 0.80957C14.4835 0.80957 14.1596 0.943761 13.9207 1.18262C13.6818 1.42148 13.5476 1.74545 13.5476 2.08325H8.45239C8.45239 1.74545 8.3182 1.42148 8.07934 1.18262C7.84048 0.943761 7.51652 0.80957 7.17871 0.80957C6.84091 0.80957 6.51695 0.943761 6.27809 1.18262C6.03923 1.42148 5.90503 1.74545 5.90503 2.08325H3.35718C2.68151 2.08332 2.03354 2.35181 1.55581 2.82963C1.07809 3.30746 0.809746 3.95548 0.809814 4.63116V18.6429C0.809812 18.9774 0.875703 19.3086 1.00373 19.6176C1.13175 19.9267 1.31939 20.2075 1.55595 20.444C1.7925 20.6805 2.07332 20.8681 2.38238 20.996C2.69144 21.124 3.02268 21.1898 3.35718 21.1898H18.6428C18.9773 21.1899 19.3086 21.1241 19.6176 20.9961C19.9267 20.8682 20.2076 20.6806 20.4441 20.4441C20.6807 20.2076 20.8684 19.9268 20.9964 19.6177C21.1244 19.3087 21.1902 18.9774 21.1902 18.6429V4.63116C21.1903 4.29658 21.1244 3.96527 20.9965 3.65614C20.8685 3.347 20.6808 3.06611 20.4443 2.82951C20.2077 2.59291 19.9269 2.40522 19.6178 2.27718C19.3086 2.14913 18.9773 2.08323 18.6428 2.08325ZM18.6428 18.6429H3.35718V9.72688H18.6428V18.6429ZM18.6428 7.17797H3.35718V4.63116H5.905C5.905 4.96896 6.0392 5.29293 6.27806 5.53179C6.51692 5.77065 6.84088 5.90484 7.17868 5.90484C7.51649 5.90484 7.84045 5.77065 8.07931 5.53179C8.31817 5.29293 8.45236 4.96896 8.45236 4.63116H13.5476C13.5476 4.96896 13.6818 5.29293 13.9206 5.53179C14.1595 5.77065 14.4835 5.90484 14.8213 5.90484C15.1591 5.90484 15.483 5.77065 15.7219 5.53179C15.9608 5.29293 16.0949 4.96896 16.0949 4.63116H18.6427L18.6428 7.17797Z" fill="#212121"/>
</svg>
