<svg width="22" height="22" viewBox="0 0 22 22" fill="none" xmlns="http://www.w3.org/2000/svg">
<path fill-rule="evenodd" clip-rule="evenodd" d="M7.17877 0.80957H3.35742C3.02282 0.809557 2.6915 0.875452 2.38237 1.00349C2.07324 1.13153 1.79236 1.31921 1.55577 1.55581C1.31917 1.79241 1.1315 2.07329 1.00347 2.38243C0.875437 2.69156 0.809549 3.02288 0.80957 3.35748V7.17871C0.809735 7.8543 1.07825 8.50216 1.55606 8.97978C2.03387 9.45741 2.68183 9.72568 3.35742 9.72558H7.17877C7.85435 9.72567 8.5023 9.45739 8.9801 8.97977C9.45789 8.50215 9.7264 7.85429 9.72656 7.17871V3.35748C9.72658 3.02289 9.6607 2.69157 9.53267 2.38244C9.40464 2.07331 9.21698 1.79242 8.98039 1.55583C8.7438 1.31923 8.46293 1.13155 8.1538 1.0035C7.84468 0.875462 7.51336 0.809562 7.17877 0.80957ZM7.17877 7.17871H3.35742V3.35748H7.17877V7.17871ZM18.6426 0.80957H14.8212C14.1456 0.809761 13.4978 1.0783 13.0202 1.55612C12.5426 2.03393 12.2744 2.6819 12.2745 3.35748V7.17871C12.2746 7.85413 12.5429 8.50187 13.0205 8.97948C13.4981 9.45708 14.1458 9.72546 14.8212 9.72558H18.6426C19.3182 9.72569 19.9661 9.45742 20.444 8.9798C20.9218 8.50217 21.1903 7.85431 21.1904 7.17871V3.35748C21.1905 3.02288 21.1246 2.69155 20.9965 2.38242C20.8685 2.07329 20.6808 1.7924 20.4442 1.5558C20.2077 1.3192 19.9268 1.13152 19.6176 1.00348C19.3085 0.875443 18.9772 0.809552 18.6426 0.80957ZM18.6426 7.17871H14.8212V3.35748H18.6426V7.17871ZM7.17877 12.2735H3.35742C3.02283 12.2735 2.69152 12.3394 2.3824 12.4674C2.07327 12.5954 1.7924 12.7831 1.5558 13.0197C1.31921 13.2563 1.13154 13.5372 1.0035 13.8463C0.87546 14.1554 0.809562 14.4867 0.80957 14.8213V18.6426C0.809556 18.9772 0.875448 19.3085 1.00348 19.6176C1.13152 19.9268 1.31919 20.2076 1.55578 20.4442C1.79237 20.6808 2.07325 20.8685 2.38238 20.9966C2.6915 21.1246 3.02283 21.1905 3.35742 21.1905H7.17877C7.51336 21.1905 7.84468 21.1246 8.1538 20.9965C8.46292 20.8685 8.74379 20.6808 8.98038 20.4442C9.21696 20.2076 9.40463 19.9267 9.53266 19.6176C9.66069 19.3085 9.72658 18.9772 9.72656 18.6426V14.8213C9.72657 14.4867 9.66068 14.1554 9.53264 13.8463C9.40461 13.5372 9.21694 13.2563 8.98035 13.0197C8.74377 12.7831 8.4629 12.5955 8.15378 12.4674C7.84466 12.3394 7.51335 12.2735 7.17877 12.2735ZM7.17877 18.6426H3.35742V14.8213H7.17877V18.6426ZM18.6426 12.2735H14.8212C14.1457 12.2737 13.4978 12.5422 13.0202 13.02C12.5426 13.4978 12.2744 14.1457 12.2745 14.8213V18.6426C12.2744 19.3182 12.5426 19.9661 13.0202 20.4439C13.4978 20.9217 14.1457 21.1903 14.8212 21.1905H18.6426C18.9772 21.1905 19.3085 21.1246 19.6176 20.9966C19.9268 20.8685 20.2076 20.6809 20.4442 20.4443C20.6808 20.2077 20.8685 19.9268 20.9965 19.6176C21.1246 19.3085 21.1905 18.9772 21.1904 18.6426V14.8213C21.1904 14.4867 21.1246 14.1554 20.9965 13.8463C20.8685 13.5371 20.6808 13.2563 20.4442 13.0197C20.2076 12.7831 19.9267 12.5954 19.6176 12.4674C19.3085 12.3394 18.9772 12.2735 18.6426 12.2735ZM18.6426 18.6426H14.8212V14.8213H18.6426V18.6426Z" fill="#E8590C"/>
</svg>
