<svg width="18" height="14" viewBox="0 0 18 14" fill="none" xmlns="http://www.w3.org/2000/svg">
<path fill-rule="evenodd" clip-rule="evenodd" d="M15.3693 0.630737H2.63127C2.35244 0.630729 2.07635 0.68564 1.81875 0.792335C1.56115 0.89903 1.32709 1.05542 1.12993 1.25257C0.932769 1.44973 0.776374 1.68379 0.669673 1.94138C0.562972 2.19898 0.508054 2.47507 0.508057 2.7539V11.246C0.508051 11.5248 0.562966 11.8009 0.669666 12.0585C0.776366 12.3161 0.932761 12.5501 1.12992 12.7473C1.32708 12.9445 1.56114 13.1008 1.81875 13.2075C2.07635 13.3142 2.35244 13.3691 2.63127 13.3691H15.3693C15.6481 13.3691 15.9242 13.3142 16.1817 13.2075C16.4393 13.1008 16.6733 12.9444 16.8704 12.7472C17.0676 12.55 17.2239 12.316 17.3306 12.0584C17.4372 11.8008 17.4921 11.5248 17.4921 11.246V2.7539C17.4922 2.19085 17.2685 1.65084 16.8704 1.25267C16.4723 0.854502 15.9324 0.630786 15.3693 0.630737ZM13.7108 2.7539L9.00013 6.67973L4.28939 2.7539H13.7108ZM15.3693 11.246H2.63127V4.13574L8.32056 8.877C8.51139 9.03581 8.75181 9.12276 9.00008 9.12276C9.24835 9.12276 9.48878 9.03581 9.67961 8.877L15.3693 4.13574V11.246Z" fill="#2B2826"/>
</svg>
