<svg width="22" height="18" viewBox="0 0 22 18" fill="none" xmlns="http://www.w3.org/2000/svg">
<path fill-rule="evenodd" clip-rule="evenodd" d="M20.6968 7.57127C20.4657 7.22698 20.1536 6.94482 19.7878 6.74964C19.4219 6.55446 19.0137 6.45227 18.5991 6.45207H17.9653L14.5464 1.86717C14.4291 1.70902 14.2764 1.58052 14.1006 1.49199C13.9247 1.40345 13.7306 1.35734 13.5337 1.35734H9.73389C9.73469 1.02055 9.60172 0.697227 9.36421 0.458447C9.12669 0.219666 8.80408 0.084975 8.46729 0.0839844H7.20068C6.86388 0.0849723 6.54127 0.219665 6.30375 0.458451C6.06624 0.697237 5.93327 1.02057 5.93408 1.35736H3.40088C3.11779 1.35801 2.84307 1.45336 2.62044 1.62822C2.39782 1.80308 2.24011 2.0474 2.17242 2.32227L0.90582 7.41698C0.891123 7.51954 0.889135 7.62351 0.8999 7.72655H0.86768V8.99998H0.87451C0.872332 9.16766 0.886736 9.33514 0.91751 9.49998L2.18411 15.8691C2.29721 16.4449 2.60657 16.9637 3.05943 17.337C3.51229 17.7103 4.08061 17.9149 4.66748 17.916H16.0659C16.5734 17.9154 17.0689 17.7624 17.4884 17.4768C17.9079 17.1913 18.2319 16.7863 18.4185 16.3144L20.9507 9.94534C21.1047 9.55883 21.1621 9.14057 21.1178 8.72685C21.0736 8.31314 20.9291 7.91647 20.6968 7.57127ZM4.39014 3.90428H12.8999L14.7993 6.45207H3.75641L4.39014 3.90428ZM16.0659 15.3691H4.66748L3.40088 8.99998H18.5991L16.0659 15.3691ZM7.20068 10.2734C6.94841 10.2719 6.70139 10.3454 6.49092 10.4844C6.28045 10.6235 6.11601 10.822 6.01844 11.0546C5.92087 11.2872 5.89456 11.5436 5.94285 11.7912C5.99113 12.0388 6.11184 12.2665 6.28967 12.4454C6.46751 12.6244 6.69446 12.7465 6.94176 12.7963C7.18907 12.8461 7.44559 12.8213 7.67882 12.7252C7.91205 12.6291 8.11149 12.4658 8.25186 12.2562C8.39223 12.0466 8.4672 11.8 8.46729 11.5478C8.46831 11.2108 8.33545 10.8873 8.09791 10.6483C7.86038 10.4093 7.53764 10.2744 7.20068 10.2734ZM11.0005 10.2734C10.7482 10.2719 10.5012 10.3454 10.2907 10.4844C10.0803 10.6235 9.91582 10.8219 9.81824 11.0546C9.72067 11.2872 9.69436 11.5436 9.74264 11.7912C9.79093 12.0388 9.91164 12.2665 10.0895 12.4454C10.2673 12.6244 10.4943 12.7465 10.7416 12.7963C10.9889 12.8461 11.2454 12.8213 11.4786 12.7252C11.7119 12.6291 11.9113 12.4658 12.0517 12.2562C12.192 12.0466 12.267 11.8 12.2671 11.5478C12.2677 11.3809 12.2354 11.2156 12.172 11.0612C12.1087 10.9068 12.0155 10.7664 11.8979 10.6481C11.7803 10.5297 11.6405 10.4357 11.4865 10.3714C11.3325 10.3071 11.1674 10.2738 11.0005 10.2734ZM14.7993 10.2734C14.5471 10.2719 14.3 10.3454 14.0896 10.4844C13.8791 10.6235 13.7146 10.8219 13.6171 11.0546C13.5195 11.2872 13.4932 11.5436 13.5415 11.7912C13.5898 12.0388 13.7105 12.2665 13.8883 12.4454C14.0661 12.6244 14.2931 12.7465 14.5404 12.7963C14.7877 12.8461 15.0442 12.8213 15.2775 12.7252C15.5107 12.6291 15.7101 12.4658 15.8505 12.2562C15.9909 12.0466 16.0658 11.8 16.0659 11.5478C16.0665 11.3809 16.0343 11.2155 15.9709 11.0612C15.9076 10.9068 15.8144 10.7664 15.6968 10.648C15.5792 10.5297 15.4393 10.4356 15.2853 10.3714C15.1314 10.3071 14.9662 10.2738 14.7993 10.2734Z" fill="black"/>
</svg>
