<svg width="22" height="16" viewBox="0 0 22 16" fill="none" xmlns="http://www.w3.org/2000/svg">
<path fill-rule="evenodd" clip-rule="evenodd" d="M18.6426 4.17879H16.1846L14.3887 1.49025C14.1577 1.14078 13.8435 0.854266 13.4742 0.656511C13.105 0.458756 12.6923 0.355978 12.2734 0.357437H3.35745C2.68246 0.359349 2.03565 0.628271 1.55827 1.10547C1.08089 1.58268 0.811731 2.22939 0.80957 2.90438V10.547C0.810167 11.021 0.942777 11.4855 1.19254 11.8884C1.44229 12.2913 1.79933 12.6167 2.22363 12.8281C2.43623 13.613 2.8943 14.3093 3.53089 14.8152C4.16748 15.3211 4.94921 15.6102 5.7618 15.6401C6.5744 15.67 7.37526 15.4392 8.04731 14.9814C8.71936 14.5236 9.22737 13.8629 9.49707 13.0958H12.5029C12.7726 13.8629 13.2806 14.5236 13.9527 14.9814C14.6247 15.4392 15.4256 15.67 16.2382 15.6401C17.0508 15.6102 17.8325 15.3211 18.4691 14.8152C19.1057 14.3093 19.5638 13.613 19.7764 12.8281C20.2007 12.6167 20.5577 12.2913 20.8075 11.8884C21.0572 11.4855 21.1898 11.021 21.1904 10.547V6.72664C21.1886 6.05145 20.9196 5.40444 20.4422 4.92701C19.9648 4.44958 19.3178 4.18057 18.6426 4.17879ZM9.72658 2.90438H12.2735L13.1231 4.17879H9.72656L9.72658 2.90438ZM3.35744 2.90438H7.17877V4.17879H3.35742L3.35744 2.90438ZM5.90527 13.0958C5.65318 13.096 5.40669 13.0214 5.197 12.8814C4.9873 12.7415 4.82382 12.5425 4.72722 12.3097C4.63062 12.0768 4.60526 11.8206 4.65433 11.5733C4.7034 11.326 4.8247 11.0989 5.00289 10.9205C5.18109 10.7422 5.40816 10.6208 5.6554 10.5715C5.90264 10.5223 6.15892 10.5474 6.39185 10.6439C6.62477 10.7403 6.82386 10.9037 6.96393 11.1132C7.104 11.3228 7.17877 11.5693 7.17877 11.8214C7.17769 12.1589 7.0432 12.4823 6.80463 12.721C6.56607 12.9597 6.24277 13.0945 5.90527 13.0958ZM16.0958 13.0958C15.8437 13.096 15.5972 13.0214 15.3875 12.8815C15.1777 12.7416 15.0142 12.5426 14.9176 12.3098C14.821 12.0769 14.7956 11.8207 14.8447 11.5734C14.8937 11.3261 15.015 11.0989 15.1932 10.9206C15.3714 10.7423 15.5985 10.6208 15.8457 10.5715C16.093 10.5223 16.3493 10.5474 16.5822 10.6439C16.8151 10.7403 17.0142 10.9036 17.1543 11.1132C17.2944 11.3228 17.3691 11.5693 17.3691 11.8214C17.3681 12.1588 17.2336 12.4822 16.995 12.7209C16.7565 12.9597 16.4332 13.0944 16.0958 13.0958ZM18.6426 8.98055C18.1771 8.56029 17.6149 8.26164 17.006 8.11118C16.3972 7.96072 15.7606 7.96312 15.1529 8.11815C14.5452 8.27319 13.9853 8.57607 13.523 8.99982C13.0606 9.42357 12.7102 9.95505 12.5029 10.547H9.49707C9.28979 9.95505 8.93938 9.42357 8.47705 8.99982C8.01471 8.57607 7.45477 8.27319 6.84709 8.11815C6.2394 7.96312 5.60281 7.96072 4.99397 8.11118C4.38513 8.26164 3.82294 8.56029 3.35742 8.98055V6.72664H18.6426V8.98055Z" fill="black"/>
</svg>
