<svg width="18" height="18" viewBox="0 0 18 18" fill="none" xmlns="http://www.w3.org/2000/svg">
<path fill-rule="evenodd" clip-rule="evenodd" d="M16.0413 10.1707L12.8561 9.1095C12.3712 8.94784 11.8443 8.9665 11.372 9.16204C10.8998 9.35758 10.5139 9.71688 10.2852 10.174L9.89955 10.9462C9.22898 10.7401 8.61905 10.373 8.12299 9.87695C7.62692 9.3809 7.25979 8.77098 7.05364 8.10042L7.82599 7.71467C8.28309 7.48619 8.64246 7.10052 8.83814 6.62844C9.03382 6.15636 9.05268 5.62954 8.89125 5.14468L7.82927 1.96025C7.65143 1.42643 7.26893 0.985046 6.76582 0.733107C6.2627 0.481168 5.68015 0.439284 5.14617 0.616659L2.68279 1.43372C2.40228 1.52703 2.1443 1.67777 1.92529 1.87632C1.70628 2.07487 1.53105 2.31689 1.41076 2.58693C0.779567 4.01466 0.471601 5.56421 0.508882 7.1248C0.546163 8.68538 0.92777 10.2185 1.62642 11.6144C1.75073 11.8762 1.88818 12.1315 2.03825 12.3793C2.4806 13.1153 3.01525 13.7916 3.6292 14.3919C3.73336 14.4969 3.85544 14.6173 3.99053 14.7385C5.94248 16.5124 8.48603 17.4941 11.1236 17.4916C12.6016 17.4954 14.0638 17.1874 15.4147 16.5876C15.6848 16.4677 15.9269 16.2927 16.1255 16.0738C16.3241 15.8549 16.4747 15.5969 16.5678 15.3164L17.3858 12.8538C17.5629 12.3197 17.5208 11.7371 17.2687 11.2341C17.0166 10.731 16.5752 10.3486 16.0413 10.1707ZM14.5529 14.6474C13.0486 15.3104 11.3844 15.5229 9.76192 15.2591C8.13939 14.9954 6.62818 14.2667 5.41141 13.1614C5.30486 13.0654 5.2096 12.9702 5.11361 12.875C4.62594 12.3966 4.20149 11.8578 3.8506 11.2717C3.73404 11.0794 3.62756 10.8811 3.53159 10.6777C2.9706 9.56054 2.66357 8.33312 2.63247 7.08337C2.60137 5.83363 2.84697 4.59246 3.3517 3.44874L5.81511 2.63163L6.87626 5.81609L4.7531 6.87724C4.75553 8.56589 5.42752 10.1847 6.62174 11.3786C7.81595 12.5725 9.43489 13.2441 11.1235 13.246L12.1847 11.1228L15.3699 12.1849L14.5529 14.6474Z" fill="#2B2826"/>
</svg>
