<svg width="22" height="18" viewBox="0 0 22 18" fill="none" xmlns="http://www.w3.org/2000/svg">
<path fill-rule="evenodd" clip-rule="evenodd" d="M16.0958 6.49066V6.4516C16.0936 5.7766 15.8244 5.12989 15.347 4.65269C14.8697 4.17548 14.2228 3.90656 13.5478 3.90466H12.2745V2.63031C12.2725 1.95528 12.0033 1.3085 11.5259 0.831284C11.0485 0.354071 10.4016 0.0852266 9.72656 0.0834961H3.35742C2.6824 0.0852293 2.03551 0.354077 1.5581 0.831291C1.08069 1.30851 0.811579 1.95529 0.80957 2.63031V3.90466C0.811721 4.57964 1.08087 5.22636 1.55825 5.70356C2.03562 6.18077 2.68243 6.44969 3.35742 6.4516H4.63086V7.726C3.95603 7.7281 3.30944 7.99711 2.83225 8.47428C2.35506 8.95146 2.08604 9.59804 2.08392 10.2729V11.5473C2.08432 11.9988 2.20484 12.4421 2.43311 12.8317C2.66137 13.2212 2.98917 13.543 3.38287 13.7641C3.36756 13.8738 3.35906 13.9844 3.35742 14.0952V15.3686C3.35939 16.0437 3.62845 16.6906 4.10584 17.168C4.58323 17.6454 5.23014 17.9145 5.90527 17.9165H12.2745C12.7166 17.92 13.1518 17.8057 13.5352 17.5854C14.1524 17.8062 14.8033 17.9182 15.4589 17.9165C16.9237 17.9167 18.333 17.356 19.3973 16.3496C20.4615 15.3431 21.1 13.9673 21.1815 12.5048C21.263 11.0423 20.7814 9.60404 19.8356 8.48555C18.8897 7.36706 17.5515 6.65322 16.0958 6.49066ZM3.35742 3.90466V2.63031H9.72656V3.90466H3.35742ZM4.63086 11.5473V10.2729H10.0577C9.90748 10.6839 9.80905 11.112 9.76468 11.5473H4.63086ZM5.90527 15.3686V14.0952H10.0577C10.2101 14.547 10.4243 14.9756 10.6943 15.3686H5.90527ZM11.8663 7.72601H7.17877V6.4516H13.5478V6.78369C12.9356 6.99497 12.3661 7.31411 11.8663 7.726V7.72601ZM15.4589 15.3686C15.2449 15.367 15.0314 15.3457 14.8212 15.3051C14.3348 15.2069 13.8784 14.9954 13.489 14.6878C13.0996 14.3802 12.7882 13.9851 12.5801 13.5346C12.3743 13.1144 12.2696 12.6518 12.2745 12.184C12.2761 11.9702 12.2973 11.7571 12.3378 11.5473C12.4333 11.0856 12.629 10.6506 12.9112 10.2729C13.2087 9.8783 13.5935 9.55799 14.0355 9.33706C14.4776 9.11613 14.9648 9.0006 15.4589 8.99951C15.5564 8.99739 15.654 9.00164 15.751 9.01221C16.5665 9.08787 17.3215 9.47479 17.8592 10.0926C18.397 10.7104 18.676 11.5116 18.6384 12.3298C18.6008 13.1479 18.2495 13.9202 17.6574 14.4861C17.0653 15.052 16.278 15.368 15.4589 15.3686Z" fill="black"/>
</svg>
