<svg width="24" height="24" viewBox="0 0 24 24" fill="none" xmlns="http://www.w3.org/2000/svg">
<circle cx="12" cy="12" r="12" fill="#E0FAEB"/>
<path fill-rule="evenodd" clip-rule="evenodd" d="M13.6983 5.20667H7.75394C7.30395 5.20782 6.87272 5.38707 6.55449 5.70523C6.23626 6.02339 6.05692 6.45459 6.05566 6.90458V17.0946C6.05689 17.5447 6.2362 17.976 6.55441 18.2943C6.87263 18.6125 7.30388 18.7919 7.75394 18.7932H16.2458C16.6959 18.7919 17.1272 18.6125 17.4454 18.2943C17.7637 17.976 17.943 17.5447 17.9443 17.0946V9.45211C17.9439 8.32618 17.4964 7.24651 16.7001 6.45042C15.9039 5.65432 14.8242 5.20696 13.6983 5.20667V5.20667ZM16.2458 17.0947H7.75394V6.90458H12V11.1506H16.2458V17.0947ZM13.6983 9.45211V6.90458C14.3733 6.90654 15.0202 7.17557 15.4975 7.6529C15.9748 8.13023 16.2438 8.77706 16.2458 9.45211H13.6983Z" fill="#112C1C"/>
</svg>
