<svg width="38" height="38" viewBox="0 0 38 38" fill="none" xmlns="http://www.w3.org/2000/svg">
<rect x="0.5" y="0.5" width="37" height="37" rx="4.5" fill="#E8E8E8" stroke="#CACCCF"/>
<path d="M9.26 33.08C8.86 33.08 8.55167 32.9683 8.335 32.745C8.12167 32.5217 8.015 32.2 8.015 31.78V28.68H7.405C7.35167 28.68 7.30667 28.665 7.27 28.635C7.23333 28.6017 7.215 28.5517 7.215 28.485V28.13L8.045 28.025L8.25 26.46C8.26 26.41 8.28167 26.37 8.315 26.34C8.35167 26.3067 8.39833 26.29 8.455 26.29H8.905V28.035H10.37V28.68H8.905V31.72C8.905 31.9333 8.95667 32.0917 9.06 32.195C9.16333 32.2983 9.29667 32.35 9.46 32.35C9.55333 32.35 9.63333 32.3383 9.7 32.315C9.77 32.2883 9.83 32.26 9.88 32.23C9.93 32.2 9.97167 32.1733 10.005 32.15C10.0417 32.1233 10.0733 32.11 10.1 32.11C10.1467 32.11 10.1883 32.1383 10.225 32.195L10.485 32.62C10.3317 32.7633 10.1467 32.8767 9.93 32.96C9.71333 33.04 9.49 33.08 9.26 33.08ZM12.634 28.95C12.794 28.6033 12.9907 28.3333 13.224 28.14C13.4573 27.9433 13.7423 27.845 14.079 27.845C14.1857 27.845 14.2873 27.8567 14.384 27.88C14.484 27.9033 14.5723 27.94 14.649 27.99L14.584 28.655C14.564 28.7383 14.514 28.78 14.434 28.78C14.3873 28.78 14.319 28.77 14.229 28.75C14.139 28.73 14.0373 28.72 13.924 28.72C13.764 28.72 13.6207 28.7433 13.494 28.79C13.3707 28.8367 13.259 28.9067 13.159 29C13.0623 29.09 12.974 29.2033 12.894 29.34C12.8173 29.4733 12.7473 29.6267 12.684 29.8V33H11.789V27.935H12.299C12.3957 27.935 12.4623 27.9533 12.499 27.99C12.5357 28.0267 12.5607 28.09 12.574 28.18L12.634 28.95ZM20.0966 27.935V33H19.5666C19.4399 33 19.3599 32.9383 19.3266 32.815L19.2566 32.27C19.0366 32.5133 18.7899 32.71 18.5166 32.86C18.2432 33.0067 17.9299 33.08 17.5766 33.08C17.2999 33.08 17.0549 33.035 16.8416 32.945C16.6316 32.8517 16.4549 32.7217 16.3116 32.555C16.1682 32.3883 16.0599 32.1867 15.9866 31.95C15.9166 31.7133 15.8816 31.4517 15.8816 31.165V27.935H16.7716V31.165C16.7716 31.5483 16.8582 31.845 17.0316 32.055C17.2082 32.265 17.4766 32.37 17.8366 32.37C18.0999 32.37 18.3449 32.3083 18.5716 32.185C18.8016 32.0583 19.0132 31.885 19.2066 31.665V27.935H20.0966ZM25.5327 28.835C25.5061 28.8717 25.4794 28.9 25.4527 28.92C25.4261 28.94 25.3894 28.95 25.3427 28.95C25.2927 28.95 25.2377 28.93 25.1777 28.89C25.1177 28.8467 25.0427 28.8 24.9527 28.75C24.8661 28.7 24.7577 28.655 24.6277 28.615C24.5011 28.5717 24.3444 28.55 24.1577 28.55C23.9077 28.55 23.6877 28.595 23.4977 28.685C23.3077 28.7717 23.1477 28.8983 23.0177 29.065C22.8911 29.2317 22.7944 29.4333 22.7277 29.67C22.6644 29.9067 22.6327 30.1717 22.6327 30.465C22.6327 30.7717 22.6677 31.045 22.7377 31.285C22.8077 31.5217 22.9061 31.7217 23.0327 31.885C23.1627 32.045 23.3177 32.1683 23.4977 32.255C23.6811 32.3383 23.8861 32.38 24.1127 32.38C24.3294 32.38 24.5077 32.355 24.6477 32.305C24.7877 32.2517 24.9027 32.1933 24.9927 32.13C25.0861 32.0667 25.1627 32.01 25.2227 31.96C25.2861 31.9067 25.3477 31.88 25.4077 31.88C25.4811 31.88 25.5377 31.9083 25.5777 31.965L25.8277 32.29C25.7177 32.4267 25.5927 32.5433 25.4527 32.64C25.3127 32.7367 25.1611 32.8183 24.9977 32.885C24.8377 32.9483 24.6694 32.995 24.4927 33.025C24.3161 33.055 24.1361 33.07 23.9527 33.07C23.6361 33.07 23.3411 33.0117 23.0677 32.895C22.7977 32.7783 22.5627 32.61 22.3627 32.39C22.1627 32.1667 22.0061 31.8933 21.8927 31.57C21.7794 31.2467 21.7227 30.8783 21.7227 30.465C21.7227 30.0883 21.7744 29.74 21.8777 29.42C21.9844 29.1 22.1377 28.825 22.3377 28.595C22.5411 28.3617 22.7894 28.18 23.0827 28.05C23.3794 27.92 23.7194 27.855 24.1027 27.855C24.4594 27.855 24.7727 27.9133 25.0427 28.03C25.3161 28.1433 25.5577 28.305 25.7677 28.515L25.5327 28.835ZM28.1781 25.635V29.97H28.4081C28.4748 29.97 28.5298 29.9617 28.5731 29.945C28.6198 29.925 28.6681 29.8867 28.7181 29.83L30.3181 28.115C30.3648 28.0583 30.4131 28.015 30.4631 27.985C30.5165 27.9517 30.5865 27.935 30.6731 27.935H31.4781L29.6131 29.92C29.5231 30.0333 29.4265 30.1217 29.3231 30.185C29.3831 30.225 29.4365 30.2717 29.4831 30.325C29.5331 30.375 29.5798 30.4333 29.6231 30.5L31.6031 33H30.8081C30.7315 33 30.6648 32.9883 30.6081 32.965C30.5548 32.9383 30.5081 32.8917 30.4681 32.825L28.8031 30.75C28.7531 30.68 28.7031 30.635 28.6531 30.615C28.6065 30.5917 28.5331 30.58 28.4331 30.58H28.1781V33H27.2831V25.635H28.1781Z" fill="black"/>
<path d="M22.6667 5.75H8.91667V17.6667H22.6667V5.75Z" stroke="black" stroke-linecap="round" stroke-linejoin="round"/>
<path d="M22.6667 10.3333H26.3333L29.0833 13.0833V17.6666H22.6667V10.3333Z" stroke="black" stroke-linecap="round" stroke-linejoin="round"/>
<path d="M13.0417 22.2501C14.3073 22.2501 15.3333 21.2241 15.3333 19.9584C15.3333 18.6928 14.3073 17.6667 13.0417 17.6667C11.776 17.6667 10.75 18.6928 10.75 19.9584C10.75 21.2241 11.776 22.2501 13.0417 22.2501Z" stroke="black" stroke-linecap="round" stroke-linejoin="round"/>
<path d="M24.9583 22.2501C26.224 22.2501 27.25 21.2241 27.25 19.9584C27.25 18.6928 26.224 17.6667 24.9583 17.6667C23.6927 17.6667 22.6667 18.6928 22.6667 19.9584C22.6667 21.2241 23.6927 22.2501 24.9583 22.2501Z" stroke="black" stroke-linecap="round" stroke-linejoin="round"/>
</svg>
