<svg width="38" height="38" viewBox="0 0 38 38" fill="none" xmlns="http://www.w3.org/2000/svg">
<rect x="0.5" y="0.5" width="37" height="37" rx="4.5" fill="#E8E8E8" stroke="#CACCCF"/>
<path d="M23.125 11.6164L14.875 6.85889" stroke="black" stroke-linecap="round" stroke-linejoin="round"/>
<path d="M27.25 17.6664V10.3331C27.2497 10.0116 27.1648 9.69582 27.0039 9.41748C26.843 9.13914 26.6118 8.908 26.3333 8.74725L19.9167 5.08058C19.638 4.91967 19.3218 4.83496 19 4.83496C18.6782 4.83496 18.362 4.91967 18.0833 5.08058L11.6667 8.74725C11.3882 8.908 11.157 9.13914 10.9961 9.41748C10.8352 9.69582 10.7503 10.0116 10.75 10.3331V17.6664C10.7503 17.9879 10.8352 18.3037 10.9961 18.582C11.157 18.8604 11.3882 19.0915 11.6667 19.2522L18.0833 22.9189C18.362 23.0798 18.6782 23.1645 19 23.1645C19.3218 23.1645 19.638 23.0798 19.9167 22.9189L26.3333 19.2522C26.6118 19.0915 26.843 18.8604 27.0039 18.582C27.1648 18.3037 27.2497 17.9879 27.25 17.6664Z" stroke="black" stroke-linecap="round" stroke-linejoin="round"/>
<path d="M10.9976 9.37988L19.0001 14.009L27.0026 9.37988" stroke="black" stroke-linecap="round" stroke-linejoin="round"/>
<path d="M19 23V14" stroke="black" stroke-linecap="round" stroke-linejoin="round"/>
<path d="M10.6988 28.835C10.6721 28.8717 10.6454 28.9 10.6188 28.92C10.5921 28.94 10.5554 28.95 10.5088 28.95C10.4588 28.95 10.4038 28.93 10.3438 28.89C10.2838 28.8467 10.2088 28.8 10.1188 28.75C10.0321 28.7 9.92375 28.655 9.79375 28.615C9.66708 28.5717 9.51042 28.55 9.32375 28.55C9.07375 28.55 8.85375 28.595 8.66375 28.685C8.47375 28.7717 8.31375 28.8983 8.18375 29.065C8.05708 29.2317 7.96042 29.4333 7.89375 29.67C7.83042 29.9067 7.79875 30.1717 7.79875 30.465C7.79875 30.7717 7.83375 31.045 7.90375 31.285C7.97375 31.5217 8.07208 31.7217 8.19875 31.885C8.32875 32.045 8.48375 32.1683 8.66375 32.255C8.84708 32.3383 9.05208 32.38 9.27875 32.38C9.49542 32.38 9.67375 32.355 9.81375 32.305C9.95375 32.2517 10.0688 32.1933 10.1588 32.13C10.2521 32.0667 10.3288 32.01 10.3888 31.96C10.4521 31.9067 10.5138 31.88 10.5738 31.88C10.6471 31.88 10.7038 31.9083 10.7438 31.965L10.9938 32.29C10.8838 32.4267 10.7588 32.5433 10.6188 32.64C10.4788 32.7367 10.3271 32.8183 10.1638 32.885C10.0038 32.9483 9.83542 32.995 9.65875 33.025C9.48208 33.055 9.30208 33.07 9.11875 33.07C8.80208 33.07 8.50708 33.0117 8.23375 32.895C7.96375 32.7783 7.72875 32.61 7.52875 32.39C7.32875 32.1667 7.17208 31.8933 7.05875 31.57C6.94542 31.2467 6.88875 30.8783 6.88875 30.465C6.88875 30.0883 6.94042 29.74 7.04375 29.42C7.15042 29.1 7.30375 28.825 7.50375 28.595C7.70708 28.3617 7.95542 28.18 8.24875 28.05C8.54542 27.92 8.88542 27.855 9.26875 27.855C9.62542 27.855 9.93875 27.9133 10.2088 28.03C10.4821 28.1433 10.7238 28.305 10.9338 28.515L10.6988 28.835ZM15.1941 30.72C14.7841 30.7333 14.4341 30.7667 14.1441 30.82C13.8575 30.87 13.6225 30.9367 13.4391 31.02C13.2591 31.1033 13.1275 31.2017 13.0441 31.315C12.9641 31.4283 12.9241 31.555 12.9241 31.695C12.9241 31.8283 12.9458 31.9433 12.9891 32.04C13.0325 32.1367 13.0908 32.2167 13.1641 32.28C13.2408 32.34 13.3291 32.385 13.4291 32.415C13.5325 32.4417 13.6425 32.455 13.7591 32.455C13.9158 32.455 14.0591 32.44 14.1891 32.41C14.3191 32.3767 14.4408 32.33 14.5541 32.27C14.6708 32.21 14.7808 32.1383 14.8841 32.055C14.9908 31.9717 15.0941 31.8767 15.1941 31.77V30.72ZM12.3191 28.65C12.5991 28.38 12.9008 28.1783 13.2241 28.045C13.5475 27.9117 13.9058 27.845 14.2991 27.845C14.5825 27.845 14.8341 27.8917 15.0541 27.985C15.2741 28.0783 15.4591 28.2083 15.6091 28.375C15.7591 28.5417 15.8725 28.7433 15.9491 28.98C16.0258 29.2167 16.0641 29.4767 16.0641 29.76V33H15.6691C15.5825 33 15.5158 32.9867 15.4691 32.96C15.4225 32.93 15.3858 32.8733 15.3591 32.79L15.2591 32.31C15.1258 32.4333 14.9958 32.5433 14.8691 32.64C14.7425 32.7333 14.6091 32.8133 14.4691 32.88C14.3291 32.9433 14.1791 32.9917 14.0191 33.025C13.8625 33.0617 13.6875 33.08 13.4941 33.08C13.2975 33.08 13.1125 33.0533 12.9391 33C12.7658 32.9433 12.6141 32.86 12.4841 32.75C12.3575 32.64 12.2558 32.5017 12.1791 32.335C12.1058 32.165 12.0691 31.965 12.0691 31.735C12.0691 31.535 12.1241 31.3433 12.2341 31.16C12.3441 30.9733 12.5225 30.8083 12.7691 30.665C13.0158 30.5217 13.3375 30.405 13.7341 30.315C14.1308 30.2217 14.6175 30.1683 15.1941 30.155V29.76C15.1941 29.3667 15.1091 29.07 14.9391 28.87C14.7691 28.6667 14.5208 28.565 14.1941 28.565C13.9741 28.565 13.7891 28.5933 13.6391 28.65C13.4925 28.7033 13.3641 28.765 13.2541 28.835C13.1475 28.9017 13.0541 28.9633 12.9741 29.02C12.8975 29.0733 12.8208 29.1 12.7441 29.1C12.6841 29.1 12.6325 29.085 12.5891 29.055C12.5458 29.0217 12.5091 28.9817 12.4791 28.935L12.3191 28.65ZM18.7648 28.95C18.9248 28.6033 19.1215 28.3333 19.3548 28.14C19.5882 27.9433 19.8732 27.845 20.2098 27.845C20.3165 27.845 20.4182 27.8567 20.5148 27.88C20.6148 27.9033 20.7032 27.94 20.7798 27.99L20.7148 28.655C20.6948 28.7383 20.6448 28.78 20.5648 28.78C20.5182 28.78 20.4498 28.77 20.3598 28.75C20.2698 28.73 20.1682 28.72 20.0548 28.72C19.8948 28.72 19.7515 28.7433 19.6248 28.79C19.5015 28.8367 19.3898 28.9067 19.2898 29C19.1932 29.09 19.1048 29.2033 19.0248 29.34C18.9482 29.4733 18.8782 29.6267 18.8148 29.8V33H17.9198V27.935H18.4298C18.5265 27.935 18.5932 27.9533 18.6298 27.99C18.6665 28.0267 18.6915 28.09 18.7048 28.18L18.7648 28.95ZM23.7102 30.525C23.8902 30.525 24.0486 30.5 24.1852 30.45C24.3219 30.4 24.4369 30.33 24.5302 30.24C24.6236 30.15 24.6936 30.0433 24.7402 29.92C24.7869 29.7933 24.8102 29.655 24.8102 29.505C24.8102 29.195 24.7152 28.9483 24.5252 28.765C24.3386 28.5817 24.0669 28.49 23.7102 28.49C23.3502 28.49 23.0752 28.5817 22.8852 28.765C22.6986 28.9483 22.6052 29.195 22.6052 29.505C22.6052 29.655 22.6286 29.7933 22.6752 29.92C22.7252 30.0433 22.7969 30.15 22.8902 30.24C22.9836 30.33 23.0986 30.4 23.2352 30.45C23.3719 30.5 23.5302 30.525 23.7102 30.525ZM25.3152 33.275C25.3152 33.1517 25.2802 33.0517 25.2102 32.975C25.1402 32.8983 25.0452 32.8383 24.9252 32.795C24.8086 32.7517 24.6719 32.7217 24.5152 32.705C24.3586 32.685 24.1919 32.67 24.0152 32.66C23.8419 32.65 23.6652 32.64 23.4852 32.63C23.3052 32.62 23.1319 32.6033 22.9652 32.58C22.7786 32.6667 22.6252 32.7767 22.5052 32.91C22.3886 33.04 22.3302 33.1933 22.3302 33.37C22.3302 33.4833 22.3586 33.5883 22.4152 33.685C22.4752 33.785 22.5652 33.87 22.6852 33.94C22.8052 34.0133 22.9552 34.07 23.1352 34.11C23.3186 34.1533 23.5336 34.175 23.7802 34.175C24.0202 34.175 24.2352 34.1533 24.4252 34.11C24.6152 34.0667 24.7752 34.005 24.9052 33.925C25.0386 33.845 25.1402 33.75 25.2102 33.64C25.2802 33.53 25.3152 33.4083 25.3152 33.275ZM26.2202 28.135V28.465C26.2202 28.575 26.1502 28.645 26.0102 28.675L25.4352 28.75C25.5486 28.97 25.6052 29.2133 25.6052 29.48C25.6052 29.7267 25.5569 29.9517 25.4602 30.155C25.3669 30.355 25.2369 30.5267 25.0702 30.67C24.9036 30.8133 24.7036 30.9233 24.4702 31C24.2369 31.0767 23.9836 31.115 23.7102 31.115C23.4736 31.115 23.2502 31.0867 23.0402 31.03C22.9336 31.0967 22.8519 31.1683 22.7952 31.245C22.7386 31.3183 22.7102 31.3933 22.7102 31.47C22.7102 31.59 22.7586 31.6817 22.8552 31.745C22.9552 31.805 23.0852 31.8483 23.2452 31.875C23.4052 31.9017 23.5869 31.9183 23.7902 31.925C23.9969 31.9317 24.2069 31.9433 24.4202 31.96C24.6369 31.9733 24.8469 31.9983 25.0502 32.035C25.2569 32.0717 25.4402 32.1317 25.6002 32.215C25.7602 32.2983 25.8886 32.4133 25.9852 32.56C26.0852 32.7067 26.1352 32.8967 26.1352 33.13C26.1352 33.3467 26.0802 33.5567 25.9702 33.76C25.8636 33.9633 25.7086 34.1433 25.5052 34.3C25.3019 34.46 25.0519 34.5867 24.7552 34.68C24.4619 34.7767 24.1302 34.825 23.7602 34.825C23.3902 34.825 23.0669 34.7883 22.7902 34.715C22.5136 34.6417 22.2836 34.5433 22.1002 34.42C21.9169 34.2967 21.7786 34.1533 21.6852 33.99C21.5952 33.83 21.5502 33.6617 21.5502 33.485C21.5502 33.235 21.6286 33.0233 21.7852 32.85C21.9419 32.6767 22.1569 32.5383 22.4302 32.435C22.2802 32.3683 22.1602 32.28 22.0702 32.17C21.9836 32.0567 21.9402 31.905 21.9402 31.715C21.9402 31.6417 21.9536 31.5667 21.9802 31.49C22.0069 31.41 22.0469 31.3317 22.1002 31.255C22.1569 31.175 22.2252 31.1 22.3052 31.03C22.3852 30.96 22.4786 30.8983 22.5852 30.845C22.3352 30.705 22.1402 30.52 22.0002 30.29C21.8602 30.0567 21.7902 29.7867 21.7902 29.48C21.7902 29.2333 21.8369 29.01 21.9302 28.81C22.0269 28.6067 22.1602 28.435 22.3302 28.295C22.5002 28.1517 22.7019 28.0417 22.9352 27.965C23.1719 27.8883 23.4302 27.85 23.7102 27.85C23.9302 27.85 24.1352 27.875 24.3252 27.925C24.5152 27.9717 24.6886 28.0417 24.8452 28.135H26.2202ZM29.6974 27.855C30.0674 27.855 30.4008 27.9167 30.6974 28.04C30.9941 28.1633 31.2474 28.3383 31.4574 28.565C31.6674 28.7917 31.8274 29.0667 31.9374 29.39C32.0508 29.71 32.1074 30.0683 32.1074 30.465C32.1074 30.865 32.0508 31.225 31.9374 31.545C31.8274 31.865 31.6674 32.1383 31.4574 32.365C31.2474 32.5917 30.9941 32.7667 30.6974 32.89C30.4008 33.01 30.0674 33.07 29.6974 33.07C29.3241 33.07 28.9874 33.01 28.6874 32.89C28.3908 32.7667 28.1374 32.5917 27.9274 32.365C27.7174 32.1383 27.5558 31.865 27.4424 31.545C27.3324 31.225 27.2774 30.865 27.2774 30.465C27.2774 30.0683 27.3324 29.71 27.4424 29.39C27.5558 29.0667 27.7174 28.7917 27.9274 28.565C28.1374 28.3383 28.3908 28.1633 28.6874 28.04C28.9874 27.9167 29.3241 27.855 29.6974 27.855ZM29.6974 32.375C30.1974 32.375 30.5708 32.2083 30.8174 31.875C31.0641 31.5383 31.1874 31.07 31.1874 30.47C31.1874 29.8667 31.0641 29.3967 30.8174 29.06C30.5708 28.7233 30.1974 28.555 29.6974 28.555C29.4441 28.555 29.2224 28.5983 29.0324 28.685C28.8458 28.7717 28.6891 28.8967 28.5624 29.06C28.4391 29.2233 28.3458 29.425 28.2824 29.665C28.2224 29.9017 28.1924 30.17 28.1924 30.47C28.1924 31.07 28.3158 31.5383 28.5624 31.875C28.8124 32.2083 29.1908 32.375 29.6974 32.375Z" fill="black"/>
</svg>
