<svg width="27" height="27" viewBox="0 0 27 27" fill="none" xmlns="http://www.w3.org/2000/svg">
<g clip-path="url(#clip0)">
<path d="M6.94287 8.56793C6.94287 8.11943 6.57887 7.75543 6.13037 7.75543L1.25537 7.75543C0.806871 7.75543 0.442871 8.11943 0.442871 8.56793C0.442871 9.01643 0.806871 9.38043 1.25537 9.38043L6.13037 9.38043C6.57887 9.38043 6.94287 9.01643 6.94287 8.56793Z" fill="#FFC107"/>
<path d="M6.13037 11.0054L2.88037 11.0054C2.43187 11.0054 2.06787 11.3694 2.06787 11.8179C2.06787 12.2664 2.43187 12.6304 2.88037 12.6304L6.13037 12.6304C6.57887 12.6304 6.94287 12.2664 6.94287 11.8179C6.94287 11.3694 6.57887 11.0054 6.13037 11.0054Z" fill="#FFC107"/>
<path d="M6.13037 14.2554H4.50537C4.05687 14.2554 3.69287 14.6194 3.69287 15.0679C3.69287 15.5164 4.05687 15.8804 4.50537 15.8804H6.13037C6.57887 15.8804 6.94287 15.5164 6.94287 15.0679C6.94287 14.6194 6.57887 14.2554 6.13037 14.2554Z" fill="#FFC107"/>
<path d="M26.3275 13.8378L23.89 9.77528C23.7437 9.5299 23.4789 9.3804 23.1929 9.3804L17.5054 9.3804C17.0569 9.3804 16.6929 9.7444 16.6929 10.1929L16.6929 18.3179C16.6929 18.7664 17.0569 19.1304 17.5054 19.1304H25.6304C26.0789 19.1304 26.4429 18.7664 26.4429 18.3179V14.2554C26.4429 14.1075 26.4039 13.9629 26.3275 13.8378Z" fill="#F44336"/>
<path d="M19.9429 11.0055H22.733L24.683 14.2555L19.9429 14.2555V11.0055Z" fill="#FAFAFA"/>
<path d="M17.5054 6.13037L6.13037 6.13037C5.68187 6.13037 5.31787 6.49437 5.31787 6.94287L5.31787 18.3179C5.31787 18.7664 5.68187 19.1304 6.13037 19.1304L18.3179 19.1304L18.3179 6.94287C18.3179 6.49437 17.9539 6.13037 17.5054 6.13037Z" fill="#FFC107"/>
<path d="M22.3804 19.9429C23.2778 19.9429 24.0054 19.2154 24.0054 18.3179C24.0054 17.4204 23.2778 16.6929 22.3804 16.6929C21.4829 16.6929 20.7554 17.4204 20.7554 18.3179C20.7554 19.2154 21.4829 19.9429 22.3804 19.9429Z" fill="#FAFAFA"/>
<path d="M22.3804 20.7554C21.0365 20.7554 19.9429 19.6617 19.9429 18.3179C19.9429 16.974 21.0365 15.8804 22.3804 15.8804C23.7242 15.8804 24.8179 16.974 24.8179 18.3179C24.8179 19.6617 23.7242 20.7554 22.3804 20.7554ZM22.3804 17.5054C21.9335 17.5054 21.5679 17.871 21.5679 18.3179C21.5679 18.7647 21.9335 19.1304 22.3804 19.1304C22.8272 19.1304 23.1929 18.7647 23.1929 18.3179C23.1929 17.871 22.8272 17.5054 22.3804 17.5054Z" fill="#455A64"/>
<path d="M18.3179 19.1305L6.13037 19.1305C5.68187 19.1305 5.31787 18.7665 5.31787 18.318L5.31787 15.8805L18.3179 15.8805V19.1305Z" fill="#F44336"/>
<path d="M11.0054 19.9429C11.9028 19.9429 12.6304 19.2154 12.6304 18.3179C12.6304 17.4204 11.9028 16.6929 11.0054 16.6929C10.1079 16.6929 9.38037 17.4204 9.38037 18.3179C9.38037 19.2154 10.1079 19.9429 11.0054 19.9429Z" fill="#FAFAFA"/>
<path d="M11.0054 20.7555C9.6615 20.7555 8.56787 19.6619 8.56787 18.318C8.56787 16.9741 9.6615 15.8805 11.0054 15.8805C12.3492 15.8805 13.4429 16.9741 13.4429 18.318C13.4429 19.6619 12.3492 20.7555 11.0054 20.7555ZM11.0054 17.5055C10.5569 17.5055 10.1929 17.8711 10.1929 18.318C10.1929 18.7649 10.5569 19.1305 11.0054 19.1305C11.4539 19.1305 11.8179 18.7649 11.8179 18.318C11.8179 17.8711 11.4539 17.5055 11.0054 17.5055Z" fill="#455A64"/>
</g>
<defs>
<clipPath id="clip0">
<rect width="26" height="26" fill="white" transform="translate(0.442871 0.442932)"/>
</clipPath>
</defs>
</svg>
