<svg width="78" height="26" viewBox="0 0 78 26" fill="none" xmlns="http://www.w3.org/2000/svg">
<rect width="78" height="26" rx="13" fill="#FAFAF9"/>
<circle cx="20" cy="13" r="4" fill="#36B37E"/>
<path d="M41.664 14.808L40.314 11.31C40.274 11.206 40.232 11.086 40.188 10.95C40.144 10.81 40.102 10.662 40.062 10.506C39.978 10.83 39.892 11.1 39.804 11.316L38.454 14.808H41.664ZM44.088 18H43.188C43.084 18 43 17.974 42.936 17.922C42.872 17.87 42.824 17.804 42.792 17.724L41.988 15.648H38.13L37.326 17.724C37.302 17.796 37.256 17.86 37.188 17.916C37.12 17.972 37.036 18 36.936 18H36.036L39.474 9.402H40.65L44.088 18ZM46.0177 9.162V14.364H46.2937C46.3737 14.364 46.4397 14.354 46.4917 14.334C46.5477 14.31 46.6057 14.264 46.6657 14.196L48.5857 12.138C48.6417 12.07 48.6997 12.018 48.7597 11.982C48.8237 11.942 48.9077 11.922 49.0117 11.922H49.9777L47.7397 14.304C47.6317 14.44 47.5157 14.546 47.3917 14.622C47.4637 14.67 47.5277 14.726 47.5837 14.79C47.6437 14.85 47.6997 14.92 47.7517 15L50.1277 18H49.1737C49.0817 18 49.0017 17.986 48.9337 17.958C48.8697 17.926 48.8137 17.87 48.7657 17.79L46.7677 15.3C46.7077 15.216 46.6477 15.162 46.5877 15.138C46.5317 15.11 46.4437 15.096 46.3237 15.096H46.0177V18H44.9437V9.162H46.0177ZM56.6774 18H55.6094V12.816H52.4774V16.464C52.4774 16.72 52.5394 16.91 52.6634 17.034C52.7874 17.158 52.9474 17.22 53.1434 17.22C53.2554 17.22 53.3514 17.206 53.4314 17.178C53.5154 17.146 53.5874 17.112 53.6474 17.076C53.7074 17.04 53.7574 17.008 53.7974 16.98C53.8414 16.948 53.8794 16.932 53.9114 16.932C53.9674 16.932 54.0174 16.966 54.0614 17.034L54.3734 17.544C54.1894 17.716 53.9674 17.852 53.7074 17.952C53.4474 18.048 53.1794 18.096 52.9034 18.096C52.4234 18.096 52.0534 17.962 51.7934 17.694C51.5374 17.426 51.4094 17.04 51.4094 16.536V12.816H50.6774C50.6134 12.816 50.5594 12.798 50.5154 12.762C50.4714 12.722 50.4494 12.662 50.4494 12.582V12.156L51.4454 12.024L51.6914 10.152C51.7034 10.092 51.7294 10.044 51.7694 10.008C51.8134 9.968 51.8694 9.948 51.9374 9.948H52.4774V12.042H56.6774V18ZM56.9414 9.972C56.9414 10.076 56.9194 10.174 56.8754 10.266C56.8354 10.354 56.7794 10.432 56.7074 10.5C56.6394 10.568 56.5594 10.622 56.4674 10.662C56.3754 10.702 56.2774 10.722 56.1734 10.722C56.0694 10.722 55.9714 10.702 55.8794 10.662C55.7914 10.622 55.7134 10.568 55.6454 10.5C55.5774 10.432 55.5234 10.354 55.4834 10.266C55.4434 10.174 55.4234 10.076 55.4234 9.972C55.4234 9.868 55.4434 9.77 55.4834 9.678C55.5234 9.582 55.5774 9.5 55.6454 9.432C55.7134 9.36 55.7914 9.304 55.8794 9.264C55.9714 9.224 56.0694 9.204 56.1734 9.204C56.2774 9.204 56.3754 9.224 56.4674 9.264C56.5594 9.304 56.6394 9.36 56.7074 9.432C56.7794 9.5 56.8354 9.582 56.8754 9.678C56.9194 9.77 56.9414 9.868 56.9414 9.972ZM58.8279 18V12.834L58.1559 12.756C58.0719 12.736 58.0019 12.706 57.9459 12.666C57.8939 12.622 57.8679 12.56 57.8679 12.48V12.042H58.8279V11.454C58.8279 11.106 58.8759 10.798 58.9719 10.53C59.0719 10.258 59.2119 10.03 59.3919 9.846C59.5759 9.658 59.7959 9.516 60.0519 9.42C60.3079 9.324 60.5959 9.276 60.9159 9.276C61.1879 9.276 61.4379 9.316 61.6659 9.396L61.6419 9.93C61.6339 10.026 61.5799 10.078 61.4799 10.086C61.3839 10.094 61.2539 10.098 61.0899 10.098C60.9059 10.098 60.7379 10.122 60.5859 10.17C60.4379 10.218 60.3099 10.296 60.2019 10.404C60.0939 10.512 60.0099 10.654 59.9499 10.83C59.8939 11.006 59.8659 11.224 59.8659 11.484V12.042H61.6179V12.816H59.9019V18H58.8279Z" fill="black"/>
</svg>
