<svg width="87" height="24" viewBox="0 0 87 24" fill="none" xmlns="http://www.w3.org/2000/svg">
<rect width="87" height="24" rx="12" fill="#FAFAF9"/>
<circle cx="12" cy="12" r="4" fill="#FF5630"/>
<path d="M27.43 15.23C27.7067 15.23 27.945 15.1983 28.145 15.135C28.345 15.0717 28.5083 14.9833 28.635 14.87C28.765 14.7533 28.86 14.6167 28.92 14.46C28.98 14.3 29.01 14.125 29.01 13.935C29.01 13.565 28.8783 13.2733 28.615 13.06C28.3517 12.8433 27.9567 12.735 27.43 12.735H25.88V15.23H27.43ZM25.88 9.6V12.045H27.16C27.4333 12.045 27.67 12.015 27.87 11.955C28.0733 11.895 28.24 11.8117 28.37 11.705C28.5033 11.5983 28.6017 11.47 28.665 11.32C28.7283 11.1667 28.76 11 28.76 10.82C28.76 10.3967 28.6333 10.0883 28.38 9.895C28.1267 9.69833 27.7333 9.6 27.2 9.6H25.88ZM27.2 8.835C27.64 8.835 28.0183 8.87833 28.335 8.965C28.655 9.05167 28.9167 9.175 29.12 9.335C29.3267 9.495 29.4783 9.69167 29.575 9.925C29.6717 10.155 29.72 10.415 29.72 10.705C29.72 10.8817 29.6917 11.0517 29.635 11.215C29.5817 11.375 29.5 11.525 29.39 11.665C29.28 11.805 29.14 11.9317 28.97 12.045C28.8033 12.155 28.6067 12.245 28.38 12.315C28.9067 12.415 29.3017 12.6033 29.565 12.88C29.8317 13.1533 29.965 13.5133 29.965 13.96C29.965 14.2633 29.9083 14.54 29.795 14.79C29.685 15.04 29.5217 15.255 29.305 15.435C29.0917 15.615 28.8283 15.755 28.515 15.855C28.2017 15.9517 27.845 16 27.445 16H24.915V8.835H27.2ZM34.4817 12.915C34.4817 12.7083 34.4517 12.52 34.3917 12.35C34.3351 12.1767 34.2501 12.0283 34.1367 11.905C34.0267 11.7783 33.8917 11.6817 33.7317 11.615C33.5717 11.545 33.3901 11.51 33.1867 11.51C32.7601 11.51 32.4217 11.635 32.1717 11.885C31.9251 12.1317 31.7717 12.475 31.7117 12.915H34.4817ZM35.2017 15.29C35.0917 15.4233 34.9601 15.54 34.8067 15.64C34.6534 15.7367 34.4884 15.8167 34.3117 15.88C34.1384 15.9433 33.9584 15.99 33.7717 16.02C33.5851 16.0533 33.4001 16.07 33.2167 16.07C32.8667 16.07 32.5434 16.0117 32.2467 15.895C31.9534 15.775 31.6984 15.6017 31.4817 15.375C31.2684 15.145 31.1017 14.8617 30.9817 14.525C30.8617 14.1883 30.8017 13.8017 30.8017 13.365C30.8017 13.0117 30.8551 12.6817 30.9617 12.375C31.0717 12.0683 31.2284 11.8033 31.4317 11.58C31.6351 11.3533 31.8834 11.1767 32.1767 11.05C32.4701 10.92 32.8001 10.855 33.1667 10.855C33.4701 10.855 33.7501 10.9067 34.0067 11.01C34.2667 11.11 34.4901 11.2567 34.6767 11.45C34.8667 11.64 35.0151 11.8767 35.1217 12.16C35.2284 12.44 35.2817 12.76 35.2817 13.12C35.2817 13.26 35.2667 13.3533 35.2367 13.4C35.2067 13.4467 35.1501 13.47 35.0667 13.47H31.6817C31.6917 13.79 31.7351 14.0683 31.8117 14.305C31.8917 14.5417 32.0017 14.74 32.1417 14.9C32.2817 15.0567 32.4484 15.175 32.6417 15.255C32.8351 15.3317 33.0517 15.37 33.2917 15.37C33.5151 15.37 33.7067 15.345 33.8667 15.295C34.0301 15.2417 34.1701 15.185 34.2867 15.125C34.4034 15.065 34.5001 15.01 34.5767 14.96C34.6567 14.9067 34.7251 14.88 34.7817 14.88C34.8551 14.88 34.9117 14.9083 34.9517 14.965L35.2017 15.29ZM37.2949 8.635V16H36.4049V8.635H37.2949ZM42.9032 10.935V16H42.3732C42.2465 16 42.1665 15.9383 42.1332 15.815L42.0632 15.27C41.8432 15.5133 41.5965 15.71 41.3232 15.86C41.0499 16.0067 40.7365 16.08 40.3832 16.08C40.1065 16.08 39.8615 16.035 39.6482 15.945C39.4382 15.8517 39.2615 15.7217 39.1182 15.555C38.9749 15.3883 38.8665 15.1867 38.7932 14.95C38.7232 14.7133 38.6882 14.4517 38.6882 14.165V10.935H39.5782V14.165C39.5782 14.5483 39.6649 14.845 39.8382 15.055C40.0149 15.265 40.2832 15.37 40.6432 15.37C40.9065 15.37 41.1515 15.3083 41.3782 15.185C41.6082 15.0583 41.8199 14.885 42.0132 14.665V10.935H42.9032ZM44.3144 16V10.935H44.8494C44.976 10.935 45.0544 10.9967 45.0844 11.12L45.1494 11.64C45.336 11.41 45.546 11.2217 45.7794 11.075C46.0127 10.9283 46.2827 10.855 46.5894 10.855C46.9294 10.855 47.2044 10.95 47.4144 11.14C47.6277 11.33 47.781 11.5867 47.8744 11.91C47.9477 11.7267 48.041 11.5683 48.1544 11.435C48.271 11.3017 48.401 11.1917 48.5444 11.105C48.6877 11.0183 48.8394 10.955 48.9994 10.915C49.1627 10.875 49.3277 10.855 49.4944 10.855C49.761 10.855 49.9977 10.8983 50.2044 10.985C50.4144 11.0683 50.591 11.1917 50.7344 11.355C50.881 11.5183 50.9927 11.72 51.0694 11.96C51.146 12.1967 51.1844 12.4683 51.1844 12.775V16H50.2894V12.775C50.2894 12.3783 50.2027 12.0783 50.0294 11.875C49.856 11.6683 49.606 11.565 49.2794 11.565C49.1327 11.565 48.9927 11.5917 48.8594 11.645C48.7294 11.695 48.6144 11.77 48.5144 11.87C48.4144 11.97 48.3344 12.0967 48.2744 12.25C48.2177 12.4 48.1894 12.575 48.1894 12.775V16H47.2944V12.775C47.2944 12.3683 47.2127 12.065 47.0494 11.865C46.886 11.665 46.6477 11.565 46.3344 11.565C46.1144 11.565 45.911 11.625 45.7244 11.745C45.5377 11.8617 45.366 12.0217 45.2094 12.225V16H44.3144ZM61.3372 13.34L60.2122 10.425C60.1789 10.3383 60.1439 10.2383 60.1072 10.125C60.0705 10.0083 60.0355 9.885 60.0022 9.755C59.9322 10.025 59.8605 10.25 59.7872 10.43L58.6622 13.34H61.3372ZM63.3572 16H62.6072C62.5205 16 62.4505 15.9783 62.3972 15.935C62.3439 15.8917 62.3039 15.8367 62.2772 15.77L61.6072 14.04H58.3922L57.7222 15.77C57.7022 15.83 57.6639 15.8833 57.6072 15.93C57.5505 15.9767 57.4805 16 57.3972 16H56.6472L59.5122 8.835H60.4922L63.3572 16ZM64.9652 8.635V12.97H65.1952C65.2619 12.97 65.3169 12.9617 65.3602 12.945C65.4069 12.925 65.4552 12.8867 65.5052 12.83L67.1052 11.115C67.1519 11.0583 67.2002 11.015 67.2502 10.985C67.3036 10.9517 67.3736 10.935 67.4602 10.935H68.2652L66.4002 12.92C66.3102 13.0333 66.2136 13.1217 66.1102 13.185C66.1702 13.225 66.2236 13.2717 66.2702 13.325C66.3202 13.375 66.3669 13.4333 66.4102 13.5L68.3902 16H67.5952C67.5186 16 67.4519 15.9883 67.3952 15.965C67.3419 15.9383 67.2952 15.8917 67.2552 15.825L65.5902 13.75C65.5402 13.68 65.4902 13.635 65.4402 13.615C65.3936 13.5917 65.3202 13.58 65.2202 13.58H64.9652V16H64.0702V8.635H64.9652ZM73.8484 16H72.9584V11.68H70.3484V14.72C70.3484 14.9333 70.4 15.0917 70.5034 15.195C70.6067 15.2983 70.74 15.35 70.9034 15.35C70.9967 15.35 71.0767 15.3383 71.1434 15.315C71.2134 15.2883 71.2734 15.26 71.3234 15.23C71.3734 15.2 71.415 15.1733 71.4484 15.15C71.485 15.1233 71.5167 15.11 71.5434 15.11C71.59 15.11 71.6317 15.1383 71.6684 15.195L71.9284 15.62C71.775 15.7633 71.59 15.8767 71.3734 15.96C71.1567 16.04 70.9334 16.08 70.7034 16.08C70.3034 16.08 69.995 15.9683 69.7784 15.745C69.565 15.5217 69.4584 15.2 69.4584 14.78V11.68H68.8484C68.795 11.68 68.75 11.665 68.7134 11.635C68.6767 11.6017 68.6584 11.5517 68.6584 11.485V11.13L69.4884 11.02L69.6934 9.46C69.7034 9.41 69.725 9.37 69.7584 9.34C69.795 9.30667 69.8417 9.29 69.8984 9.29H70.3484V11.035H73.8484V16ZM74.0684 9.31C74.0684 9.39667 74.05 9.47833 74.0134 9.555C73.98 9.62833 73.9334 9.69333 73.8734 9.75C73.8167 9.80667 73.75 9.85167 73.6734 9.885C73.5967 9.91833 73.515 9.935 73.4284 9.935C73.3417 9.935 73.26 9.91833 73.1834 9.885C73.11 9.85167 73.045 9.80667 72.9884 9.75C72.9317 9.69333 72.8867 9.62833 72.8534 9.555C72.82 9.47833 72.8034 9.39667 72.8034 9.31C72.8034 9.22333 72.82 9.14167 72.8534 9.065C72.8867 8.985 72.9317 8.91667 72.9884 8.86C73.045 8.8 73.11 8.75333 73.1834 8.72C73.26 8.68667 73.3417 8.67 73.4284 8.67C73.515 8.67 73.5967 8.68667 73.6734 8.72C73.75 8.75333 73.8167 8.8 73.8734 8.86C73.9334 8.91667 73.98 8.985 74.0134 9.065C74.05 9.14167 74.0684 9.22333 74.0684 9.31ZM75.6405 16V11.695L75.0805 11.63C75.0105 11.6133 74.9521 11.5883 74.9055 11.555C74.8621 11.5183 74.8405 11.4667 74.8405 11.4V11.035H75.6405V10.545C75.6405 10.255 75.6805 9.99833 75.7605 9.775C75.8438 9.54833 75.9605 9.35833 76.1105 9.205C76.2638 9.04833 76.4471 8.93 76.6605 8.85C76.8738 8.77 77.1138 8.73 77.3805 8.73C77.6071 8.73 77.8155 8.76333 78.0055 8.83L77.9855 9.275C77.9788 9.355 77.9338 9.39833 77.8505 9.405C77.7705 9.41167 77.6621 9.415 77.5255 9.415C77.3721 9.415 77.2321 9.435 77.1055 9.475C76.9821 9.515 76.8755 9.58 76.7855 9.67C76.6955 9.76 76.6255 9.87833 76.5755 10.025C76.5288 10.1717 76.5055 10.3533 76.5055 10.57V11.035H77.9655V11.68H76.5355V16H75.6405Z" fill="black"/>
</svg>
